<?xml version="1.0" encoding="UTF-8" standalone="no"?>
<svg
   xmlns:dc="http://purl.org/dc/elements/1.1/"
   xmlns:cc="http://creativecommons.org/ns#"
   xmlns:rdf="http://www.w3.org/1999/02/22-rdf-syntax-ns#"
   xmlns:svg="http://www.w3.org/2000/svg"
   xmlns="http://www.w3.org/2000/svg"
   xmlns:sodipodi="http://sodipodi.sourceforge.net/DTD/sodipodi-0.dtd"
   xmlns:inkscape="http://www.inkscape.org/namespaces/inkscape"
   width="343"
   height="343"
   viewBox="0 0 343 343"
   fill="none"
   version="1.1"
   id="svg39"
   sodipodi:docname="assr_sun_detail.svg"
   inkscape:version="1.0.1 (c497b03c, 2020-09-10)">
  <metadata
     id="metadata43">
    <rdf:RDF>
      <cc:Work
         rdf:about="">
        <dc:format>image/svg+xml</dc:format>
        <dc:type
           rdf:resource="http://purl.org/dc/dcmitype/StillImage" />
      </cc:Work>
    </rdf:RDF>
  </metadata>
  <sodipodi:namedview
     pagecolor="#ffffff"
     bordercolor="#666666"
     borderopacity="1"
     objecttolerance="10"
     gridtolerance="10"
     guidetolerance="10"
     inkscape:pageopacity="0"
     inkscape:pageshadow="2"
     inkscape:window-width="1920"
     inkscape:window-height="1027"
     id="namedview41"
     showgrid="false"
     inkscape:zoom="2.1428571"
     inkscape:cx="171.5"
     inkscape:cy="208.83333"
     inkscape:window-x="0"
     inkscape:window-y="25"
     inkscape:window-maximized="1"
     inkscape:current-layer="svg39" />
  <path
     opacity="0.2"
     d="M171.029 342.873C265.486 342.873 342.058 266.301 342.058 171.844C342.058 77.3875 265.486 0.815186 171.029 0.815186C76.5723 0.815186 0 77.3875 0 171.844C0 266.301 76.5723 342.873 171.029 342.873Z"
     fill="#FFF2A8"
     id="path10" />
  <path
     opacity="0.4"
     d="M171.028 301.222C242.482 301.222 300.407 243.297 300.407 171.843C300.407 100.389 242.482 42.4641 171.028 42.4641C99.5739 42.4641 41.649 100.389 41.649 171.843C41.649 243.297 99.5739 301.222 171.028 301.222Z"
     fill="#FFF2A8"
     id="path12"
     style="opacity:0.3" />
  <path
     opacity="0.6"
     d="M171.028 267.128C223.652 267.128 266.313 224.468 266.313 171.843C266.313 119.219 223.652 76.5581 171.028 76.5581C118.404 76.5581 75.743 119.219 75.743 171.843C75.743 224.468 118.404 267.128 171.028 267.128Z"
     fill="#FFF2A8"
     id="path14"
     style="opacity:0.2" />
  <path
     d="M171.029 230.823C203.602 230.823 230.008 204.417 230.008 171.844C230.008 139.271 203.602 112.865 171.029 112.865C138.456 112.865 112.05 139.271 112.05 171.844C112.05 204.417 138.456 230.823 171.029 230.823Z"
     fill="#FFF5E8"
     id="path16"
     style="opacity:0.2" />
  <g
     filter="url(#filter0_d)"
     id="g20">
    <path
       fill-rule="evenodd"
       clip-rule="evenodd"
       d="m 171.5,242 c 38.936,0 70.5,-31.564 70.5,-70.5 0,-38.936 -31.564,-70.5 -70.5,-70.5 -38.936,0 -70.5,31.564 -70.5,70.5 0,38.936 31.564,70.5 70.5,70.5 z"
       fill="#000000"
       fill-opacity="0.01"
       id="path18" />
  </g>
  <defs
     id="defs37">
    <filter
       id="filter0_d"
       x="1"
       y="1"
       width="341"
       height="341"
       filterUnits="userSpaceOnUse"
       color-interpolation-filters="sRGB">
      <feFlood
         flood-opacity="0"
         result="BackgroundImageFix"
         id="feFlood22" />
      <feColorMatrix
         in="SourceAlpha"
         type="matrix"
         values="0 0 0 0 0 0 0 0 0 0 0 0 0 0 0 0 0 0 127 0"
         id="feColorMatrix24" />
      <feOffset
         id="feOffset26" />
      <feGaussianBlur
         stdDeviation="50"
         id="feGaussianBlur28" />
      <feColorMatrix
         type="matrix"
         values="0 0 0 0 0.909804 0 0 0 0 0.717647 0 0 0 0 0.4 0 0 0 1 0"
         id="feColorMatrix30" />
      <feBlend
         mode="normal"
         in2="BackgroundImageFix"
         result="effect1_dropShadow"
         id="feBlend32" />
      <feBlend
         mode="normal"
         in="SourceGraphic"
         in2="effect1_dropShadow"
         result="shape"
         id="feBlend34" />
    </filter>
  </defs>
</svg>
