<svg width="233" height="233" viewBox="0 0 233 233" fill="none" xmlns="http://www.w3.org/2000/svg">
<path opacity="0.2" d="M198.527 198.528C243.912 153.143 243.912 79.5606 198.527 34.1762C153.143 -11.2082 79.5601 -11.2082 34.1757 34.1762C-11.2086 79.5606 -11.2086 153.143 34.1757 198.528C79.5601 243.912 153.143 243.912 198.527 198.528Z" fill="#FFF2A8"/>
<path opacity="0.4" d="M183.528 183.528C220.628 146.427 220.628 86.2762 183.528 49.176C146.427 12.0758 86.2761 12.0758 49.1759 49.176C12.0757 86.2762 12.0757 146.427 49.1759 183.528C86.2761 220.628 146.427 220.628 183.528 183.528Z" fill="#FFF2A8"/>
<path opacity="0.6" d="M170.486 170.486C200.384 140.588 200.384 92.114 170.486 62.2163C140.588 32.3185 92.1145 32.3185 62.2168 62.2163C32.319 92.114 32.319 140.588 62.2168 170.486C92.1145 200.383 140.588 200.383 170.486 170.486Z" fill="#FFF2A8"/>
<path d="M116.352 169.433C145.668 169.433 169.433 145.668 169.433 116.352C169.433 87.0362 145.668 63.271 116.352 63.271C87.0362 63.271 63.271 87.0362 63.271 116.352C63.271 145.668 87.0362 169.433 116.352 169.433Z" fill="#FFFFD3"/>
</svg>
