<svg width="100" height="100" viewBox="0 0 100 100" fill="none" xmlns="http://www.w3.org/2000/svg">
<path d="M87.5406 100H12.4955C5.6139 100 0 94.4243 0 87.509V12.4909C0 5.61188 5.6139 0 12.4955 0H87.5044C94.4221 0 99.9998 5.61188 99.9998 12.4909V87.4728C100.036 94.4243 94.4584 100 87.5406 100Z" fill="#48C900"/>
<path d="M23.2525 76.5749C23.4698 76.3215 23.7234 76.0681 23.9769 75.8508C24.2304 75.6336 24.5202 75.4526 24.8099 75.2715C25.0997 75.0905 25.4256 74.9819 25.7516 74.9095C26.0776 74.8371 26.4398 74.7646 26.8382 74.7646C27.4539 74.7646 27.9972 74.8733 28.5042 75.1267C29.0113 75.3801 29.4097 75.706 29.7719 76.1767C30.1341 76.6473 30.3876 77.2266 30.6049 77.8783C30.786 78.5662 30.8947 79.3266 30.8947 80.2317C30.8947 81.0282 30.786 81.7523 30.5687 82.4402C30.3514 83.1282 30.0616 83.7074 29.6632 84.2143C29.2648 84.7212 28.794 85.1195 28.2145 85.3729C27.635 85.6263 26.983 85.8074 26.2949 85.8074C25.6429 85.8074 25.0997 85.6988 24.665 85.4815C24.2304 85.2643 23.7958 84.9746 23.4336 84.6126V89.2469H21.3691V74.9457H22.6006C22.8903 74.9457 23.0714 75.0905 23.1439 75.3439L23.2525 76.5749ZM23.3612 83.0557C23.6871 83.4902 24.0493 83.8161 24.4477 83.9971C24.8461 84.1781 25.2808 84.2505 25.7516 84.2505C26.6933 84.2505 27.4177 83.9247 27.9247 83.2368C28.4318 82.5489 28.6853 81.5713 28.6853 80.2679C28.6853 79.58 28.6129 79.0007 28.5042 78.53C28.3956 78.0594 28.2145 77.6611 27.9972 77.3353C27.7799 77.0456 27.4901 76.7922 27.1641 76.6473C26.8382 76.5025 26.476 76.4301 26.0776 76.4301C25.4619 76.4301 24.9548 76.5749 24.5202 76.8284C24.0855 77.0818 23.6871 77.4801 23.2887 77.9507V83.0557H23.3612Z" fill="white"/>
<path d="M35.0238 77.0456C35.386 76.3577 35.7844 75.7784 36.2552 75.3801C36.726 74.9819 37.3418 74.7646 37.9937 74.7646C38.211 74.7646 38.4283 74.8009 38.6456 74.8371C38.8629 74.8733 39.044 74.9819 39.1889 75.0905L39.044 76.6473C39.0078 76.8284 38.863 76.937 38.6819 76.937C38.5732 76.937 38.4283 76.9008 38.2472 76.8646C38.0661 76.8284 37.8488 76.7922 37.6315 76.7922C37.3055 76.7922 37.0158 76.8284 36.7623 76.937C36.5087 77.0456 36.2914 77.1904 36.0741 77.3715C35.8568 77.5525 35.7119 77.7697 35.5308 78.0594C35.386 78.3128 35.2411 78.6387 35.0962 78.9645V85.6625H33.0317V74.9457H34.227C34.4443 74.9457 34.5891 74.9819 34.6978 75.0543C34.7702 75.1267 34.8427 75.2715 34.8789 75.4888L35.0238 77.0456Z" fill="white"/>
<path d="M40.6013 76.4663C41.217 75.887 41.8327 75.4888 42.5571 75.1991C43.2453 74.9095 44.0421 74.7646 44.8751 74.7646C45.4908 74.7646 46.0341 74.8733 46.5049 75.0543C46.9758 75.2715 47.3742 75.525 47.7002 75.887C48.0261 76.2491 48.2797 76.6835 48.4245 77.1904C48.6056 77.6973 48.6781 78.2404 48.6781 78.8559V85.6988H47.7726C47.5553 85.6988 47.4104 85.6625 47.3018 85.5901C47.1931 85.5177 47.1207 85.4091 47.0482 85.2281L46.8309 84.2867C46.5412 84.5402 46.2876 84.7574 46.0341 84.9384C45.7806 85.1195 45.4908 85.3005 45.2011 85.4453C44.9113 85.5901 44.5854 85.6988 44.2594 85.7712C43.9334 85.8436 43.5712 85.8798 43.1728 85.8798C42.7382 85.8798 42.3398 85.8074 41.9776 85.6988C41.6154 85.5901 41.2895 85.4091 40.9997 85.1557C40.71 84.9022 40.4926 84.6126 40.3478 84.2505C40.2029 83.8885 40.0942 83.4902 40.0942 82.9833C40.0942 82.5489 40.2029 82.1506 40.4202 81.7523C40.6375 81.3541 41.0359 81.0282 41.543 80.7024C42.05 80.3765 42.7382 80.1231 43.5712 79.9421C44.4043 79.761 45.4184 79.6162 46.6498 79.6162V78.8197C46.6498 78.0232 46.4687 77.4077 46.1428 77.0094C45.7806 76.6111 45.3097 76.3939 44.6216 76.3939C44.187 76.3939 43.7885 76.4663 43.4988 76.5749C43.209 76.6835 42.9193 76.8284 42.702 76.937C42.4847 77.0456 42.3036 77.1904 42.1225 77.299C41.9414 77.4077 41.7965 77.4801 41.6154 77.4801C41.4706 77.4801 41.3619 77.4439 41.2532 77.3715C41.1446 77.299 41.0721 77.1904 40.9997 77.0818L40.6013 76.4663ZM46.6136 80.9196C45.7806 80.9558 45.0562 81.0282 44.4767 81.1006C43.8972 81.2093 43.4264 81.3541 43.0642 81.4989C42.702 81.6799 42.4485 81.861 42.2674 82.0782C42.1225 82.2954 42.0138 82.5489 42.0138 82.8385C42.0138 83.0919 42.05 83.3454 42.1587 83.5264C42.2311 83.7074 42.376 83.8885 42.5209 83.9971C42.6658 84.1057 42.8469 84.2143 43.0642 84.2505C43.2815 84.3229 43.4988 84.3229 43.7161 84.3229C44.0421 84.3229 44.3318 84.2867 44.5854 84.2143C44.8389 84.1419 45.0924 84.0695 45.3459 83.9609C45.5995 83.8523 45.8168 83.7074 45.9979 83.5264C46.2152 83.3454 46.4325 83.1644 46.6136 82.9471V80.9196Z" fill="white"/>
<path d="M60.2317 74.9819L54.2918 88.8125C54.2194 88.9573 54.147 89.1021 54.0383 89.1745C53.9297 89.247 53.7848 89.2832 53.5675 89.2832H52.0463L54.0021 85.0109L49.6196 74.9819H51.3943C51.5754 74.9819 51.7203 75.0181 51.7928 75.0905C51.9014 75.163 51.9738 75.2716 52.0101 75.3802L54.7265 81.8248C54.7989 81.9696 54.8351 82.1506 54.9076 82.3317C54.9438 82.5127 55.0162 82.6575 55.0524 82.8386C55.0887 82.6575 55.1611 82.5127 55.1973 82.3317C55.2697 82.1506 55.306 82.0058 55.3784 81.8248L57.9861 75.4164C58.0224 75.3078 58.0948 75.1992 58.2035 75.1268C58.3121 75.0543 58.4208 75.0181 58.5656 75.0181H60.2317V74.9819Z" fill="white"/>
<path d="M70.1195 84.1781C69.866 84.4678 69.5762 84.7212 69.2502 84.9385C68.9243 85.1557 68.5621 85.3367 68.1999 85.4453C67.8377 85.5902 67.4393 85.6626 67.0409 85.735C66.6425 85.8074 66.2441 85.8436 65.8819 85.8436C65.1575 85.8436 64.4694 85.735 63.8174 85.4815C63.1655 85.2281 62.6584 84.8661 62.1876 84.3954C61.7168 83.9247 61.3546 83.3092 61.101 82.6213C60.8475 81.8972 60.7026 81.1007 60.7026 80.1593C60.7026 79.399 60.8113 78.7111 61.0648 78.0594C61.2821 77.4077 61.6443 76.8646 62.0789 76.3939C62.5136 75.9233 63.0569 75.525 63.6726 75.2715C64.2883 75.0181 65.0127 74.8733 65.7733 74.8733C66.4252 74.8733 67.0409 74.9819 67.5842 75.1991C68.1275 75.4164 68.5983 75.7422 68.9967 76.1405C69.3951 76.5388 69.7211 77.0456 69.9384 77.6611C70.1557 78.2404 70.2644 78.9283 70.2644 79.6886C70.2644 80.0145 70.2281 80.2317 70.1557 80.3403C70.0833 80.449 69.9384 80.5214 69.7573 80.5214H62.7309C62.7671 81.1731 62.8395 81.7162 63.0206 82.1868C63.1655 82.6575 63.419 83.0558 63.6726 83.3816C63.9623 83.7075 64.2883 83.9247 64.6867 84.1057C65.0851 84.2868 65.5197 84.323 65.9906 84.323C66.4614 84.323 66.8598 84.2868 67.1858 84.1781C67.5117 84.0695 67.8015 83.9609 68.055 83.8523C68.3086 83.7437 68.4897 83.5988 68.6707 83.5264C68.8518 83.454 68.9967 83.3816 69.1054 83.3816C69.2865 83.3816 69.3951 83.454 69.5038 83.5626L70.1195 84.1781ZM68.4172 79.1456C68.4172 78.7473 68.3448 78.349 68.2361 78.0232C68.1275 77.6973 67.9464 77.3715 67.7291 77.118C67.5117 76.8646 67.222 76.6836 66.896 76.5387C66.5701 76.3939 66.2079 76.3215 65.7733 76.3215C64.904 76.3215 64.2158 76.575 63.745 77.0818C63.2379 77.5887 62.9482 78.2766 62.8033 79.1456H68.4172Z" fill="white"/>
<path d="M74.3573 77.0456C74.7194 76.3577 75.1179 75.7784 75.5887 75.3801C76.0595 74.9819 76.6753 74.7646 77.3272 74.7646C77.5445 74.7646 77.7618 74.8009 77.9791 74.8371C78.1964 74.8733 78.3775 74.9819 78.5224 75.0905L78.3775 76.6473C78.3413 76.8284 78.1964 76.937 78.0153 76.937C77.9067 76.937 77.7618 76.9008 77.5807 76.8646C77.3996 76.8284 77.1823 76.7922 76.965 76.7922C76.639 76.7922 76.3493 76.8284 76.0958 76.937C75.8422 77.0456 75.6249 77.1904 75.4076 77.3715C75.1903 77.5525 75.0454 77.7697 74.8643 78.0594C74.7194 78.3128 74.5746 78.6387 74.4297 78.9645V85.6625H72.3652V74.9457H73.5605C73.7778 74.9457 73.9226 74.9819 74.0313 75.0543C74.1037 75.1267 74.1762 75.2715 74.2124 75.4888L74.3573 77.0456Z" fill="white"/>
<path d="M76.8198 35.8796C75.5883 46.6689 66.425 55.0324 55.3058 55.0324C43.3537 55.0324 33.6471 45.3293 33.6471 33.3814C33.6471 22.2663 42.0498 13.1063 52.8068 11.8753C51.9013 11.7667 50.9596 11.7305 50.0179 11.7305C35.132 11.7305 23.1074 23.7869 23.1074 38.6313C23.1074 53.4756 35.1682 65.5321 50.0179 65.5321C64.8676 65.5321 76.9284 53.4756 76.9284 38.6313C76.9646 37.7623 76.8922 36.821 76.8198 35.8796Z" fill="white"/>
<path d="M58.8912 38.5952C60.0864 39.4279 61.5714 39.8624 63.2736 39.8624C65.7727 39.8624 68.127 39.1021 70.1914 37.6538C72.9078 35.7349 74.3204 33.1643 74.3204 30.0506C74.3204 27.5525 73.4873 25.4525 71.8575 23.8233C70.2276 22.194 68.0907 21.3613 65.5192 21.3613C63.8531 21.3613 62.1146 21.7958 60.3762 22.6647L60.6297 14.9891C61.9336 14.9529 62.7666 14.9167 63.2012 14.9167C63.2012 14.9167 68.7789 14.9167 69.9379 14.9167C70.9158 14.9167 74.0306 14.3012 74.0306 11.1875C74.0306 8.6169 71.1693 6.698 71.1693 6.698C71.1693 6.698 73.1251 10.9703 69.3584 10.9703C68.5616 10.9703 59.2172 10.9703 59.2172 10.9703C59.0361 17.1976 58.855 24.9819 58.855 24.9819L59.1447 24.7646C60.8832 23.5336 62.4406 22.9181 63.7083 22.9181C65.4106 22.9181 66.8593 23.6422 68.0545 25.0905C69.2135 26.5387 69.8292 28.3852 69.8292 30.5213C69.8292 32.9471 69.2135 34.9384 67.9459 36.459C66.7144 37.9435 65.0484 38.7038 63.0201 38.7038C62.2595 38.7038 61.4989 38.5952 60.847 38.3417C60.014 38.0159 59.9415 37.7987 59.9415 37.69C59.9415 37.6538 59.9415 37.5814 60.1226 37.509C60.8832 37.0021 61.3541 36.6401 61.5351 36.3866C61.7162 36.1332 61.8249 35.7349 61.8249 35.2643C61.8249 34.6488 61.6076 34.1419 61.173 33.7436C60.7383 33.3454 60.2313 33.1643 59.5793 33.1643C58.855 33.1643 58.2392 33.4178 57.7322 33.8884C57.2251 34.3591 57.0078 34.9746 57.0078 35.6625C57.044 36.7487 57.6598 37.7624 58.8912 38.5952Z" fill="white"/>
</svg>
