<?xml version="1.0" encoding="UTF-8" standalone="no"?>
<svg
   xmlns:dc="http://purl.org/dc/elements/1.1/"
   xmlns:cc="http://creativecommons.org/ns#"
   xmlns:rdf="http://www.w3.org/1999/02/22-rdf-syntax-ns#"
   xmlns:svg="http://www.w3.org/2000/svg"
   xmlns="http://www.w3.org/2000/svg"
   width="231"
   height="231"
   viewBox="0 0 231 231"
   fill="none"
   version="1.1"
   id="svg79">
  <defs
     id="defs65">
    <radialGradient
       id="paint0_radial"
       cx="0"
       cy="0"
       r="1"
       gradientUnits="userSpaceOnUse"
       gradientTransform="translate(115.5 115.583) scale(114.971)">
      <stop
         stop-color="white"
         id="stop60" />
      <stop
         offset="1"
         stop-color="white"
         stop-opacity="0.01"
         id="stop62" />
    </radialGradient>
  </defs>
  <path
     opacity="0.1"
     d="M115.497 230.554C52.0298 230.481 0.598489 179.047 0.529053 115.58C0.601794 52.1151 52.0321 0.684802 115.497 0.612061C178.964 0.681497 230.398 52.1128 230.471 115.58C230.402 179.05 178.967 230.485 115.497 230.554Z"
     fill="#F2F2F2"
     id="path67" />
  <path
     opacity="0.1"
     d="M115.496 211.681C62.4456 211.623 19.4544 168.631 19.396 115.581C19.4539 62.5304 62.4454 19.5388 115.496 19.481C168.546 19.5394 211.538 62.5306 211.596 115.581C211.537 168.631 168.546 211.622 115.496 211.681Z"
     fill="#F2F2F2"
     id="path69" />
  <path
     opacity="0.2"
     d="M115.498 188.904C75.0229 188.859 42.2232 156.057 42.1802 115.582C42.2248 75.1081 75.0241 42.3084 115.498 42.2632C155.974 42.3062 188.776 75.1066 188.82 115.582C188.777 156.059 155.975 188.861 115.498 188.904Z"
     fill="#F2F2F2"
     id="path71" />
  <path
     opacity="0.238095"
     d="M 115.498,168.664 C 86.196,168.631 62.4509,144.884 62.4189,115.582 62.4526,86.2814 86.1972,62.5368 115.498,62.5032 c 29.302,0.0319 53.048,23.777 53.082,53.0788 -0.033,29.303 -23.779,53.05 -53.082,53.082 z"
     fill="#f2f2f2"
     id="path73"
     style="opacity:0.1" />
  <path
     opacity="0.1"
     d="M115.497 230.554C52.0298 230.481 0.598489 179.047 0.529053 115.58C0.601794 52.1151 52.0321 0.684802 115.497 0.612061C178.964 0.681497 230.398 52.1128 230.471 115.58C230.402 179.05 178.967 230.485 115.497 230.554Z"
     fill="url(#paint0_radial)"
     id="path75" />
</svg>
