<svg version="1.2" xmlns="http://www.w3.org/2000/svg" viewBox="0 0 366 600" width="366" height="600">
	<title>mosques_foreground-svg</title>
	<defs>
		<clipPath clipPathUnits="userSpaceOnUse" id="cp1">
			<path d="m0 0h375v460h-375z"/>
		</clipPath>
	</defs>
	<style>
		.s0 { fill: #628db1 } 
		.s1 { fill: #000000 } 
	</style>
	<g id="Clip-Path: g12" clip-path="url(#cp1)">
		<g id="g12">
			<path id="path10" fill-rule="evenodd" class="s0" d="m855 391.3l-0.6 207.8-1000.4 1 1-253.9 0.3 1.7 2.1 2.3 0.1 6.2h1.7v4.3l-1.5 1.1v7.2h3v7.3l-2 1.4v5.9l-0.1 6.7v1l2 0.1c-0.1-1.8 0.3-3.5 1-5.1 0.7-1.8 2.3-3.5 4.1-5q2.5-2 5.3-3.6-0.2-0.4-0.2-0.9 0-0.7 0.3-1.3v-0.1q0.4-0.8 1.1-1.3 0.7-0.5 1.4-0.9v-0.8q-0.2-0.1-0.2-0.3-0.2-0.2-0.2-0.4 0-0.3 0.2-0.5 0.1-0.2 0.3-0.3v-0.7q-0.1-0.1-0.2-0.3-0.1-0.1-0.1-0.3 0-0.2 0.1-0.4 0.1-0.2 0.3-0.2v-0.8l0.2-5.8q0-0.1 0.1-0.1 0 0 0.1 0 0 0 0.1 0 0 0 0 0.1l0.3 5.8v0.8q0.1 0 0.2 0.2 0.1 0.2 0.1 0.4 0 0.2-0.1 0.3 0 0.2-0.1 0.3v0.7q0.2 0.1 0.3 0.3 0.1 0.2 0.2 0.5 0 0.2-0.2 0.4-0.1 0.2-0.2 0.3v0.8q0.7 0.4 1.4 0.9 0.7 0.5 1.1 1.3 0.3 0.7 0.3 1.4 0 0.5-0.2 0.9 2.8 1.6 5.3 3.6c1.8 1.4 3.4 3.1 4.1 4.9 0.9 2.1 1.2 4.3 0.9 6.5q0.4 0.2 0.6 0.5 0.4 0.5 0.5 1.2 0.1-0.7 0.4-1.2c0.2-0.3 0.5-0.5 0.9-0.6 0.4 0.1 0.7 0.3 0.9 0.6q0.4 0.5 0.5 1.2 0.1-0.7 0.4-1.2c0.2-0.3 0.5-0.5 0.9-0.6q0.1 0 0.1 0 0 0.1 0.1 0.1v-2.9l0.2-30.1h-0.9c-0.5 0-1-0.2-1.4-0.5-0.4-0.4-0.6-0.9-0.6-1.4 0-0.9 0.7-1.7 1.5-1.8v-6-0.3q0-0.4 0-0.7v-2.1h-0.8c-0.4 0-0.7-0.2-0.9-0.5-0.2-0.3-0.2-0.7 0-1 0.2-0.3 0.5-0.5 0.9-0.5h1.3c-0.6-1.6-1.3-4.7 0.1-7.8 0.7-1.5 2-2.9 3.5-4.1q2-1.7 4.3-3-0.1-0.3-0.1-0.7-0.1-0.6 0.2-1.1 0.3-0.7 0.9-1.2 0.6-0.3 1.1-0.7l0.1-0.6q-0.2-0.1-0.3-0.3 0-0.2 0-0.4 0-0.2 0.1-0.3 0.1-0.2 0.2-0.3v-0.6q0-0.1-0.1-0.2-0.1-0.1-0.1-0.3 0-0.1 0.1-0.3 0.1-0.1 0.2-0.2v-0.6l0.2-4.8q0 0 0.1-0.1 0 0 0 0 0.1 0 0.1 0.1l0.3 4.8v0.6q0.1 0.1 0.2 0.2 0.1 0.2 0.1 0.3 0 0.2-0.1 0.3-0.1 0.1-0.2 0.2l0.1 0.6q0.1 0.1 0.2 0.3 0.1 0.1 0.1 0.3 0 0.2-0.1 0.4-0.1 0.1-0.2 0.3l0.1 0.6q0.5 0.4 1 0.7 0.7 0.5 1 1.2 0.2 0.5 0.2 1.1 0 0.4-0.1 0.7 2.3 1.3 4.3 3c1.5 1.2 2.8 2.6 3.5 4.1 1.3 3.1 0.7 6.2 0.1 7.8h0.8c0.4 0 0.7 0.2 0.9 0.5 0.2 0.3 0.2 0.7 0 1-0.2 0.3-0.5 0.5-0.9 0.5h-0.8v9.1c0.9 0.2 1.5 1 1.5 1.9 0 0.5-0.2 1-0.6 1.3-0.3 0.4-0.8 0.6-1.3 0.6h-1l0.2 19.8c1.4-3.1 4.1-6 7.1-8.5q4.3-3.4 9.1-6.2-0.2-0.7-0.2-1.5-0.1-1.3 0.4-2.4c0.4-0.9 1.2-1.7 2-2.4q1.1-0.8 2.3-1.4l0.1-1.5q-0.3-0.2-0.4-0.5-0.2-0.4-0.2-0.8 0-0.4 0.2-0.8 0.2-0.3 0.5-0.5v-1.3q-0.1-0.1-0.2-0.3-0.2-0.3-0.2-0.7 0-0.3 0.2-0.6 0.1-0.3 0.4-0.4v-1.4l0.5-10q0-0.1 0.1-0.2 0.1-0.1 0.2 0 0.1 0.1 0.1 0.2l0.5 10v1.4q0.3 0.1 0.4 0.4 0.2 0.3 0.2 0.6 0 0.4-0.1 0.7-0.2 0.2-0.4 0.3l0.1 1.3q0.3 0.2 0.5 0.5 0.2 0.4 0.2 0.8c0 0.5-0.2 1-0.6 1.3l0.1 1.5q1.2 0.6 2.3 1.4c0.8 0.7 1.6 1.5 2 2.4 0.3 0.7 0.5 1.5 0.4 2.4q0 0.8-0.3 1.5 4.8 2.7 9.1 6.2 3.1 2.4 5.4 5.5v-0.5c-1.6-6.5-2.6-16.1 1.7-25.9 2.4-5.5 7.3-10.8 12.8-15.3 5.4-4.5 11.4-8.2 16.3-11.1q-0.4-1.3-0.5-2.7c-0.1-1.5 0.2-2.9 0.7-4.3 0.7-1.5 2.1-2.9 3.7-4.1q1.9-1.5 4.1-2.7l0.1-2.6c-0.7-0.5-1.1-1.4-1.1-2.3q0-0.7 0.4-1.4 0.4-0.6 0.9-1l0.1-2.2q-0.3-0.3-0.6-0.7-0.2-0.5-0.2-1.1 0-0.6 0.3-1.2 0.2-0.4 0.7-0.7l0.1-2.4 0.8-17.9q0-0.2 0.1-0.3 0.1-0.1 0.3-0.1c0.2 0 0.4 0.2 0.4 0.4l0.8 17.9 0.1 2.4q0.4 0.3 0.7 0.7c0.4 0.7 0.4 1.6 0.1 2.3q-0.2 0.4-0.6 0.7l0.1 2.2q0.6 0.4 0.9 1 0.4 0.6 0.4 1.4 0 0.8-0.3 1.4-0.3 0.5-0.8 0.9l0.1 2.6q2.2 1.2 4.1 2.6c1.6 1.3 3 2.7 3.7 4.2 0.6 1.4 0.8 2.8 0.7 4.3q0 1.4-0.5 2.7c4.9 2.9 10.9 6.6 16.3 11.1 5.5 4.5 10.4 9.8 12.8 15.3 4 9 3.5 17.9 2.1 24.3q1.7-1.8 3.6-3.4 4.3-3.5 9.1-6.2-0.2-0.7-0.3-1.5c0-0.9 0.1-1.7 0.4-2.4v-0.1c0.4-0.8 1.2-1.6 2.1-2.3q1.1-0.8 2.3-1.5l0.1-1.4q-0.3-0.2-0.5-0.5-0.2-0.4-0.2-0.8 0-0.4 0.3-0.8 0.2-0.3 0.5-0.5v-1.3q-0.2-0.1-0.3-0.4-0.1-0.3-0.1-0.6 0-0.4 0.2-0.7 0.1-0.2 0.3-0.4l0.1-1.3 0.4-10c0-0.1 0.1-0.2 0.3-0.2 0.1 0 0.2 0.1 0.2 0.2l0.5 10v1.3q0.3 0.2 0.4 0.4 0.2 0.4 0.2 0.7 0 0.3-0.2 0.6-0.1 0.2-0.3 0.4l0.1 1.3q0.3 0.2 0.5 0.5 0.2 0.4 0.2 0.8 0 0.4-0.2 0.8-0.2 0.3-0.4 0.5v1.4q1.3 0.7 2.4 1.5c0.8 0.7 1.6 1.5 2 2.3 0.3 0.8 0.5 1.6 0.4 2.4q0 0.8-0.3 1.6 4.8 2.7 9.1 6.2c3.1 2.5 5.9 5.4 7.2 8.5q0.8 1.7 1.2 3.5l0.1-23.3h-0.9c-0.5 0-1-0.3-1.3-0.6-0.4-0.4-0.6-0.9-0.6-1.4 0-0.9 0.6-1.6 1.5-1.8v-9.1h-0.8c-0.4 0-0.7-0.2-0.9-0.5-0.2-0.3-0.2-0.7 0-1 0.2-0.3 0.5-0.5 0.9-0.5h0.8c-0.5-1.6-1.2-4.7 0.2-7.8 0.6-1.5 1.9-2.9 3.4-4.1q2-1.7 4.3-2.9-0.1-0.4-0.1-0.8 0-0.6 0.2-1.1 0.3-0.7 1-1.1 0.5-0.4 1.1-0.7v-0.7q-0.1-0.1-0.2-0.3-0.1-0.1-0.1-0.3 0-0.3 0.1-0.4 0.1-0.2 0.2-0.3l0.1-0.6q-0.1-0.1-0.2-0.2 0-0.1-0.1-0.3 0.1-0.1 0.1-0.3 0.1-0.1 0.2-0.2v-0.6l0.3-4.8q0-0.1 0.1-0.1 0 0 0 0.1 0.1 0 0.1 0l0.2 4.8v0.6q0.1 0.1 0.2 0.2 0.1 0.2 0.1 0.3 0 0.2-0.1 0.3 0 0.1-0.1 0.2v0.6q0.1 0.1 0.2 0.3 0.1 0.2 0.1 0.4 0 0.1 0 0.3-0.1 0.2-0.3 0.3l0.1 0.7q0.6 0.3 1.1 0.7 0.6 0.4 1 1.1 0.2 0.5 0.2 1.1-0.1 0.4-0.2 0.7 2.3 1.3 4.4 3c1.4 1.2 2.7 2.6 3.4 4.1 1.4 3.1 0.7 6.2 0.1 7.8h1.3c0.4 0 0.7 0.2 0.9 0.5 0.2 0.3 0.2 0.7 0 1-0.2 0.3-0.5 0.5-0.9 0.5h-0.8v2.1q0 0.4 0 0.7v0.3 6c0.9 0.2 1.5 0.9 1.5 1.8 0 0.5-0.2 1-0.6 1.4-0.3 0.3-0.8 0.5-1.3 0.5h-1l0.3 30.2v2.8c0.3 0.1 0.6 0.3 0.7 0.5q0.4 0.6 0.5 1.2 0.1-0.6 0.4-1.2c0.2-0.3 0.5-0.5 0.9-0.6 0.4 0.1 0.7 0.3 0.9 0.6q0.4 0.6 0.5 1.2 0.1-0.6 0.4-1.2 0.3-0.3 0.6-0.5c-0.3-2.2 0-4.4 0.9-6.4 0.8-1.8 2.4-3.5 4.2-5q2.4-2 5.2-3.6-0.1-0.4-0.1-0.9-0.1-0.7 0.2-1.4 0.5-0.8 1.2-1.3 0.6-0.5 1.3-0.9l0.1-0.8q-0.2-0.1-0.3-0.3-0.1-0.2-0.1-0.4 0-0.3 0.2-0.5 0-0.2 0.2-0.3v-0.8q0-0.1-0.1-0.1v-0.1q-0.1-0.1-0.1-0.3 0-0.2 0.1-0.4 0 0 0 0 0 0 0 0 0-0.1 0-0.1h0.1q0 0 0 0 0 0 0 0 0 0 0 0v-4.3h0.3l0.1-2.4q0-0.1 0.2-0.1 0.1 0 0.1 0.1l0.1 2.4h1.9v-66.2h-4.8v-0.8l4.8-1.6v-19.2h-0.1l-2.6-0.2-8.2-0.6v-0.7l11.3-3.4v-2.1c0 0-2.1 0.1-1.8-2.5q0-0.1 0.1-0.2c0.4-1.7 1-4.2 5.1-8.1h0.1q0.8-0.8 1.7-1.4c1.5-0.9 3.2-1.5 4.9-1.7l0.8-11.6 0.7 11.6c2.5 0.2 4.9 1.3 6.7 3.1 4.1 3.9 4.8 6.4 5.2 8.1q0 0.1 0 0.2c0.3 2.6-1.8 2.5-1.8 2.5v2l11 3.4v0.8l-10.8 0.8h-0.7v19.2l4.4 1.6v0.7h-4.4v42h0.6v-1h1.5v1h1v-1h1.5v1h0.9v-1h1.5v1h0.9v-1h1.6v1h0.9v-1h1.5v1h0.9v-1h1.6v1h0.9v-1h1.5v1h0.9v-1h1.5v1h1v-1h1.5v1h0.9v-1h0.1v-30.2h-0.4v-0.3h0.9v-0.2c0 0-1.3 0-0.6-1.6 0.6-1.5 1.5-2.1 2.6-3.1l0.2-0.1q0.2 0.2 0.4 0.4c1 0.8 1.9 1.6 2.4 2.8 0.7 1.7-0.6 1.6-0.6 1.6h-0.1v0.2h0.9v0.3h-0.4v6.8h0.1v-2.7h1.9v2.7h1.1v-2.7h1.9v2.7h1.1v-2.7h1.9v2.7h1.2v-2.7h0.6v-2.8h-0.4v-0.3h0.8v-0.2c0 0-1.3 0-0.6-1.7q0.3-0.7 0.8-1.3 0.9-1 2-1.8 0.2 0.2 0.5 0.4c0.9 0.8 1.9 1.6 2.3 2.8 0.7 1.7-0.6 1.6-0.6 1.6v0.2h0.9v0.3h-0.5v5.5h0.2v-2.7h1.9v2.7h1.2v-2.7h1.9v2.7h1.1v-2.7h1.9v2.7h1.1v-2.7h1.9v2.7h1.2v-2.7h1.9v2.7h1.1v-2.7h1.7v-6.7h-0.4v-0.3h0.9v-0.2h-0.1c0 0-1.3 0-0.6-1.6 0.7-1.4 1.5-2.1 2.6-3l0.2-0.2q0.2 0.2 0.5 0.4c0.9 0.8 1.9 1.6 2.3 2.8 0.7 1.7-0.6 1.6-0.6 1.6v0.2h0.9v0.3h-0.4v1.8l1.2-0.4v-17.6h-0.1l-2.7-0.2-2.2-0.1-5-0.4v-1.4l5.3-0.9 1.8-0.2 3.1-0.5 0.2-2.6c0 0-2 0-1.7-2.3v-0.1q0-0.1 0.1-0.2c0.4-1.5 0.9-3.8 4.7-7.4 1.6-1.6 3.8-2.6 6.1-2.8l0.7-10.6 0.7 10.6c1.7 0.2 3.4 0.8 4.8 1.8q0.7 0.5 1.3 1c3.8 3.6 4.3 5.9 4.7 7.4q0.1 0.1 0.1 0.3c0.2 2.3-1.7 2.3-1.7 2.3v2.6l9.3 1.5 0.7 0.1v1.4h-0.7l-9.1 0.7h-0.7v17.6l4.1 1.5v0.6h-4.1v3.2h1.3v2.7h1.1v-2.7h1.9v2.7h1.1v-2.7h1.9v2.7h1.2v-2.7h1.9v2.7h0.6v-9h-0.4v-0.3h0.9v-0.2c0 0-1.3 0.1-0.7-1.6 0.7-1.4 1.5-2.1 2.7-3l0.2-0.1q0.2 0.2 0.4 0.4c1 0.7 1.9 1.5 2.4 2.7 0.6 1.7-0.6 1.7-0.6 1.7h-0.1v0.1h0.9v0.3h-0.4v6.3h0.1v2.7h1.2v-2.7h1.9v2.7h1.1v-2.7h1.9v2.7h1.1v-2.7h0.6v-4.2h-0.5v-0.3h1v-0.2c0 0-1.5 0-0.7-2q0.5-1 1.3-1.9 0.9-0.9 2-1.8 0.2 0.2 0.5 0.4c0.8 0.7 1.5 1.4 2.1 2.2q0.5 0.5 0.7 1.2c0.8 1.9-0.7 1.9-0.7 1.9v0.2h1v0.3h-0.5v4.2h0.6v-1.2h3.3v-0.1c0.7-2.5 2.3-8.7 3.4-13.1-2.1 0.1-6.6 0.4-8.8 0.5l-0.7 0.1c-0.2-0.3 0.2-0.7 0.6-1q0.3-0.3 0.7-0.3c0.9-0.4 6.1-1.4 9-2q0-0.1 0.1-0.3 0-0.2 0.1-0.4 0.1-0.3 0.1-0.5v-1.9c0 0-1.7 0.1-1.4-2q0-0.1 0-0.2c0.4-1.3 0.9-3.3 4.1-6.4 1.5-1.4 3.3-2.3 5.4-2.4l0.5-9.3 0.6 9.3c2 0.1 3.9 1 5.4 2.4q1.2 1.2 2.3 2.6l0.3-2.1v-5.6h-0.6c-0.6 0-1.1-0.2-1.6-0.6-0.4-0.5-0.6-1-0.6-1.7v-35.5c0-0.6 0.2-1.2 0.6-1.6 0.5-0.5 1-0.7 1.6-0.7q0 0 0.9-0.2l0.7-3.2c0 0-1.4-2 0.7-3.2q0.3-1.1 0.6-2 0.2-0.7 0.4-1.3c-1.3-0.8-9.5-6.7-7.2-21.8 2.5-16.5 17.6-33.1 17.6-33.1 0 0 13.7-15.8 35.7-23.6v-1.3c0-1.2 1-2.2 2.2-2.3h0.4v-1.9h1.3v-8q-1-0.7-1.8-1.7h-0.1l-0.2 0.1q-0.1 0-0.3 0-0.5 0.2-1.1 0.3v-5.5q0.4-0.1 0.9-0.2 0.2 0 0.4-0.1c0.6-0.5 1.6-1 2.9-1.3v-2.9c3.4-0.9 6.8-1.6 10.2-1.8v-2.4c-2-0.6-3.4-2.5-3.4-4.6 0-2.2 1.4-4 3.4-4.7v-1.9c-1.1-0.5-1.7-1.6-1.7-2.8 0-1.2 0.6-2.4 1.7-2.9v-5.8c-2.7-1.5-4.6-4.2-5-7.3-0.4-3.1 0.8-6.3 3.1-8.4-2.1 4.2-1 9.3 2.7 12.2 3.7 2.8 8.9 2.6 12.4-0.5-1.7 3.2-5 5.2-8.6 5.2q-0.8 0-1.7-0.2v4.8c1.1 0.5 1.8 1.6 1.8 2.8 0 1.3-0.7 2.4-1.8 2.9v1.9c2 0.6 3.4 2.5 3.4 4.6 0 2.2-1.4 4-3.4 4.7v2.4c3.5 0.2 6.9 0.9 10.4 1.7v3.5q0.2 0.1 0.5 0.3l0.3 0.1q1.7 0.3 3.4 0.7v5.5q-1.6-0.4-3.1-0.7-0.9 1.1-2 2v8h1.2v1.9h0.4c0.6 0 1.2 0.2 1.6 0.7 0.4 0.4 0.7 1 0.7 1.6v1.5c21.8 7.8 35.5 23.4 35.5 23.4 0 0 15.2 16.6 17.7 33 2.1 13.5-4.2 19.6-6.6 21.4 0.2 0.7 0.5 1.6 0.8 2.7l0.2 0.6 0.2 0.4c2 1.3 0.7 3.2 0.7 3.2l0.6 3.3q1 0.2 1 0.2c0.6 0 1.2 0.2 1.6 0.6 0.4 0.5 0.7 1.1 0.7 1.7v35.5c0 0.6-0.3 1.2-0.7 1.7-0.4 0.3-0.9 0.6-1.4 0.6v2.9l0.9-0.2c0 0 0.9-1.6 3.4-1.8v-1.8c0 0-1.9 0.1-1.6-2.2v-0.1-0.2c0.4-1.5 1-3.7 4.6-7.2 1.7-1.5 3.8-2.5 6-2.7l0.7-10.4 0.6 10.4c2.3 0.2 4.4 1.2 6 2.7 3.7 3.5 4.3 5.7 4.6 7.2q0.1 0.2 0.1 0.3c0.3 2.3-1.6 2.2-1.6 2.2v1.7c0.9-0.1 2.9 0 3 1.6 0.7 0.1 1.7 0.3 2.6 0.5v2.5h-0.9c-0.7 0-1.3 0.3-1.7 0.9l-1.9 0.2-0.5 18.5h1.8v1.1h1.9v1.4c0 0-2.5 0.8-3.3 2.6 0.1 0.6 0.1 4.4 0.1 9.4l1.6 0.3v0.1c0 0.4 0.2 0.8 0.5 1v2.5l2.4 0.5 22.3 4.9v-12h-4.4v-0.7l4.4-1.5v-17.6h-0.1l-9.9-0.8v-0.7l10.4-3.1v-1.9c0 0-1.9 0.1-1.7-2.3q0.1-0.1 0.1-0.3c0.4-1.5 1-3.8 4.7-7.4q0.9-0.8 1.9-1.5c1.3-0.7 2.8-1.2 4.3-1.3l0.6-10.8 0.7 10.8c2.3 0.2 4.5 1.2 6.2 2.8 3.7 3.6 4.3 5.9 4.7 7.4q0 0.2 0 0.3v0.1l1.1-81.9h-3.7v-2h3.7l0.2-14.3h-7v-2h7l0.7-49.7c0 0 0.3-9.4-2-10.8-2.3-1.5-9.7-8.9-9.7-8.9v-10.4h10.2v-2.5h6.1v-0.7l-6.6-2.8v-5.1h6.6v-16.1c0 0 0-2.7-3.2-6l-0.3-0.4c-3.5-3.2-6.1-5.6-6.8-10.5-0.4-5.4 2.5-8.8 5.5-12.3q0.8-1 1.6-2c1.6-1.9 3.5-3.8 5.4-5.7 3.2-3.2 6.6-6.6 9.4-11 2.6-4.2 4.5-8.8 5.3-13.6-1-0.2-1.8-0.7-1.8-1.2 0-0.7 1-1.2 2.3-1.3l0.1-3.5c-0.8-0.1-1.3-0.3-1.3-0.7 0-0.3 0.6-0.6 1.3-0.7l0.2-8.7 0.5 8.7c0.8 0.1 1.5 0.4 1.5 0.7 0 0.4-0.6 0.7-1.5 0.7l0.2 3.5c1.4 0.1 2.4 0.6 2.4 1.3 0 0.5-0.8 1-1.8 1.2 0.8 4.8 2.7 9.4 5.3 13.6 2.8 4.4 6.2 7.8 9.4 11 1.9 1.9 3.8 3.8 5.4 5.7q0.8 1 1.6 2c3 3.5 5.9 6.9 5.5 12.3-0.7 4.9-3.2 7.3-6.7 10.5q-0.2 0.2-0.4 0.4c-3.2 3.3-3.2 6-3.2 6v24.7h6.9v3.7h-1.2l10.9 4v9.8l-9.1 5.4c0 0-2.3 2.3-2.6 9.2-0.1 2 0.2 22.2 0.6 50.2h7.1v2h-7.1q0.1 6.9 0.2 14.3h4v2h-3.9c0.1 8.4 0.2 17.2 0.4 26.2 0.7 43.6 1.5 91.9 2 120.8v0.2 0.2c0.1 9.2 0.2 16.3 0.3 20.7-0.8 19.6-0.4 39.3 0.9 58.9q0 0 0 0.1 0 0 0 0 0 0.1 0 0.1 0 0.1 0 0.2c3-2 6.4-3.4 9.9-4.1l0.2-32.4h-2.9c-2.1-0.1-3.7-1.8-3.7-3.9 0-2.1 1.7-3.8 3.7-3.8h3l0.2-30.2h-0.9c-1.7-0.1-3.2-1.6-3.2-3.4 0-1.7 1.5-3.2 3.2-3.3h0.9l0.5-73.2h-1.3c-1.6 0-2.8-1.3-2.9-2.8-0.1-1.5 1-2.9 2.6-3.1q-0.6-1.6-0.6-3.4 0-0.8 0.1-1.6c-0.1-0.8 0-3.8 3.4-6.7l0.7-0.6c1-0.9 1.9-1.6 2.7-2.2 1.5-1.2 2.6-2.2 3.6-3.2q-0.4-0.2-0.4-0.5c0-0.4 0.6-0.7 1.6-1q0.9-1 1.5-1.8l0.1-0.2q0.9-1 1.4-1.6l0.2-2.2c-0.8-0.2-1.4-0.8-1.6-1.4q0 0 0-0.1 0 0 0 0v-0.1q0 0 0-0.1 0-0.2 0-0.3c0.2-0.7 0.9-1.3 1.8-1.6l0.1-1.3c-0.4-0.1-0.7-0.5-0.7-0.9 0-0.4 0.3-0.8 0.9-1v-1.3l0.1-0.5c-0.3-0.2-0.6-0.4-0.6-0.7 0-0.3 0.3-0.6 0.7-0.7l0.2-3.8 0.3-0.3c-0.1-0.1-0.2-0.2-0.2-0.3q0-0.1 0.1-0.1l-0.1-0.3 0.3-4.3 0.3 4.3-0.1 0.3q0.1 0 0.2 0.1c0 0.1-0.2 0.2-0.3 0.3l0.3 0.3 0.2 3.8c0.4 0.1 0.7 0.4 0.7 0.7 0 0.3-0.3 0.5-0.6 0.7l0.1 0.5 0.1 1.3c0.5 0.2 0.8 0.6 0.8 1 0 0.4-0.3 0.7-0.7 1l0.1 1.2c1.1 0.3 1.8 1 1.8 1.9 0 0.8-0.6 1.4-1.6 1.7l0.2 2.1q0.6 0.8 1.6 2.1h0.1q0.5 0.7 1.3 1.6c1 0.3 1.6 0.6 1.6 1q0 0.2-0.4 0.5c1 1.1 2.2 2 3.7 3.2 1 0.8 2 1.7 3.4 2.8 2.3 2 3 4 3.2 5.4q0 0 0 0l0.1 0.1q0 0.2 0 0.3 0 0.1 0 0.1 0 0.4 0 0.8 0.2 0.8 0.2 1.6-0.1 0.6-0.1 1.1-0.1 0.1-0.1 0.1-0.1 1.2-0.4 2.2 0.2 0.1 0.5 0.2c1.2 0.4 2 1.5 2 2.7 0 1.3-0.7 2.4-1.8 2.8q-0.5 0.2-1 0.2h-1.4l0.5 73.2h0.9c1.8 0.1 3.2 1.5 3.2 3.3 0 1.8-1.4 3.3-3.2 3.4h-0.9l0.2 30.2h3c2.1 0 3.7 1.7 3.7 3.8 0 2.1-1.6 3.8-3.7 3.9h-2.9v8.4l0.1-0.1c1.1-1 2.2-2 3.4-2.9 6.4-5.3 13.4-9.7 19.1-13q-0.5-1.6-0.6-3.3c-0.1-1.7 0.2-3.4 0.9-5 0.8-1.8 2.5-3.5 4.3-4.8q2.3-1.8 4.8-3.2l0.1-3.1q-0.5-0.4-0.9-1-0.3-0.8-0.3-1.6c0-0.6 0.1-1.2 0.5-1.7q0.3-0.7 1-1.1l0.1-2.7q-0.4-0.4-0.7-0.7-0.3-0.7-0.3-1.4c0-0.9 0.5-1.7 1.2-2.2l0.2-2.8 0.8-20c-2.9-0.3-5.6-1.8-7.4-4.2-1.5-1.9-2.4-4.2-2.4-6.6v-0.5c0.3 1.9 1.1 3.6 2.3 5.1 3.7 4.7 10.5 5.6 15.1 1.9 1.9-1.5 3.3-3.6 3.8-6q0.1 0.8 0.1 1.7c-0.9 5-5.3 8.6-10.4 8.6l0.9 20 0.1 2.8q0.5 0.3 0.8 0.8 0.4 0.7 0.4 1.4 0 0.7-0.3 1.4-0.3 0.4-0.7 0.7l0.1 2.7q0.7 0.4 1.1 1.1 0.5 0.8 0.5 1.7 0 0.8-0.4 1.6-0.4 0.6-0.9 1l0.1 3.1q2.6 1.4 4.9 3.2c1.8 1.3 3.5 3 4.2 4.8 0.7 1.6 1 3.3 0.9 5q-0.1 1.7-0.6 3.3 0.7 0.4 1.5 0.9 0.3 0.1 0.6 0.3 0.1-0.1 0.1-0.2v-0.1q0 0 0 0c4.2-9.5 12.5-18.5 22-26.2 9.3-7.6 19.5-14.2 27.8-18.9q-0.7-2.4-0.8-4.8c-0.2-2.5 0.3-5 1.3-7.3 1.1-2.6 3.6-5 6.2-7q3.4-2.6 7.1-4.6l0.1-4.5q-0.8-0.6-1.3-1.6c-0.3-0.7-0.5-1.4-0.5-2.2 0-0.9 0.2-1.8 0.7-2.5 0.4-0.7 0.9-1.2 1.5-1.6l0.2-3.9q-0.6-0.5-1-1.1-0.5-0.9-0.5-1.9c0-0.8 0.2-1.5 0.6-2.1q0.5-0.7 1.2-1.2l0.2-4.1 1-21.9 0.3-7.2c-4.3-0.5-8.2-2.6-10.9-6-2.2-2.8-3.4-6.2-3.5-9.7v-0.7c0.6 2.7 1.7 5.2 3.4 7.4 4.2 5.4 11.5 7.5 17.9 5.1 4.9-1.9 8.4-6 9.5-11.1 0.1 0.7 0.2 1.3 0.2 2q0 0.1 0.1 0.2 0 0.1 0 0.2c-0.7 3.7-2.6 7-5.5 9.3-1.4 1.1-3 2-4.7 2.5-1.6 0.5-3.3 0.8-5 0.8l0.3 6.2 1.1 22.9 0.1 4q0.7 0.6 1.2 1.3c0.4 0.6 0.6 1.3 0.6 2q-0.1 1.1-0.5 1.9-0.4 0.7-1 1.1l0.2 3.9c0.6 0.4 1.1 1 1.5 1.6 0.4 0.8 0.7 1.7 0.7 2.6q0 1.2-0.5 2.2-0.6 0.9-1.4 1.6l0.2 4.5q3.7 2 7.1 4.6c2.6 1.9 5.1 4.4 6.2 7v0.1c1 2.2 1.4 4.7 1.3 7.2q-0.1 2.4-0.9 4.8c8.4 4.7 18.6 11.3 27.9 18.9q3.6 2.9 6.9 6.1c7.5-5.2 14.9-9.8 21.4-13.5q-0.9-3-1.1-6.1c-0.2-3.2 0.4-6.4 1.7-9.3 1.4-3.3 4.5-6.5 7.9-9q4.3-3.3 9-5.9l0.2-5.7q-1-0.8-1.7-2c-0.4-0.9-0.7-1.8-0.7-2.8 0-1.2 0.4-2.3 1-3.3 0.4-0.8 1.1-1.5 1.9-2l0.2-5q-0.7-0.6-1.3-1.4-0.5-1.1-0.6-2.4 0-0.6 0.2-1.2 0.2-0.8 0.6-1.5 0 0 0 0 0.6-0.9 1.5-1.5l0.3-5.2 1.6-37.2q-0.9-0.1-1.9-0.3c-4.7-0.9-9-3.5-12-7.4-2.7-3.5-4.3-7.9-4.4-12.4v-0.7c0.6 3.4 2.1 6.6 4.3 9.3 3 3.9 7.4 6.6 12.2 7.5 5.7 1.1 11.5-0.4 15.9-3.9q1.5-1.2 2.6-2.6c2.2-2.4 3.7-5.4 4.3-8.6 0.2 1.1 0.3 2.1 0.3 3.1-0.6 3.5-2.2 6.8-4.6 9.5q-1.1 1.2-2.4 2.3c-3.5 2.8-7.9 4.3-12.3 4.2l1.7 37.2 0.2 5.2q0.9 0.6 1.5 1.5c0.5 0.8 0.7 1.8 0.7 2.7 0 0.8-0.2 1.7-0.6 2.4q-0.5 0.8-1.2 1.4l0.1 5c0.9 0.5 1.6 1.2 2 2 0.6 1 0.9 2.1 0.9 3.3 0 1-0.2 1.9-0.7 2.8q-0.7 1.2-1.7 2l0.3 5.7q4.7 2.7 9 5.9c3.4 2.5 6.5 5.7 7.9 9v0.1c1.3 2.9 1.8 6 1.6 9.2q-0.1 3.1-1.1 6.1c10.7 6 23.8 14.4 35.6 24.1q6.2 5 11.8 10.7zm-959.8-39.6c-0.3-0.3-0.2-0.6-0.1-0.9 0.5-1.3-0.5-1.9-1.6-2.4q-0.5-0.3-0.9-0.6c-0.7 0.7-0.5 1.7-0.1 3 0.1 0.3 0.2 0.6 0 0.9q-0.3 0.3-0.2 0.7v3.5h3.1v-3.5q0-0.4-0.2-0.7zm11 4.2v-3.5q0-0.4-0.2-0.7c-0.3-0.3-0.2-0.6-0.1-0.9 0.5-1.3-0.5-1.9-1.6-2.4-0.7-0.4-1.5-0.8-1.7-1.5-0.2 0.7-1 1.1-1.7 1.5-1 0.5-2 1.1-1.6 2.4 0.1 0.3 0.2 0.6 0 0.9q-0.3 0.3-0.3 0.7v3.5zm3.9-4.2q-0.2 0.3-0.2 0.7v3.5h3.1v-3.5q0-0.4-0.2-0.7c-0.3-0.3-0.2-0.6-0.1-0.9 0.5-1.3 0.6-2.3 0-2.9q-0.4 0.3-1 0.5c-1 0.5-2 1.1-1.5 2.4 0.1 0.3 0.2 0.6-0.1 0.9zm180.2 4.2v-3.5q0-0.4-0.2-0.7c-0.3-0.3-0.2-0.6-0.1-0.9 0.5-1.3-0.5-1.9-1.5-2.4-0.8-0.4-1.6-0.8-1.8-1.5-0.2 0.7-0.9 1.1-1.7 1.5-1 0.5-2 1.1-1.6 2.4 0.1 0.3 0.2 0.6 0 0.9q-0.3 0.3-0.2 0.7v3.5zm221.2-114.1c-0.9-0.6-1.8-1-2.8-1.6q-0.2-0.1-0.4-0.2l-1.2-0.6c-1.2-0.7-2.1-1.6-2.9-2.7-0.7 1.1-1.7 2-2.9 2.7q-0.5 0.3-1.1 0.6h-0.1c-4 2.1-7.4 3.9-9 8.6v24.5h14.5v-24.5c1.2-3.4 3.3-5.2 5.9-6.8zm32.2-1.8c-4 2.1-7.4 3.9-9 8.6v24.5h23.6v-24.5q0.5-1.4 1.3-2.6c-1.8-2.9-4.6-4.3-7.7-6q-0.6-0.3-1.2-0.6c-1.1-0.7-2.1-1.6-2.9-2.7-0.7 1.1-1.7 2-2.9 2.7q-0.5 0.3-1.1 0.6c0 0-0.1 0-0.1 0zm37.2 46.3c-0.3 0.1-0.6-0.1-0.6-0.2 0 0 0.1 0 0.2-0.1 0.1-0.1 0.2-0.1 0.2-0.2 0-0.2-0.3-0.2-0.4-0.2q-0.1 0-0.1 0 0 0 0.1-0.1c0 0 0.1-0.1 0.1-0.1 0-0.2-0.4-0.2-0.4-0.2q0.1-0.1 0.1-0.2c0-0.2-0.4-0.2-0.4-0.2q0-0.1 0-0.1c0-0.3-0.4-0.2-0.5-0.2q0 0 0 0 0 0 0 0 0-0.1 0-0.1c0-0.1 0-0.2-0.3-0.2-0.1 0-0.3 0-0.3 0q0 0 0-0.1c0 0-0.1-0.2-0.4-0.2-0.3 0-0.4 0.2-0.4 0.2v0.1q0 0 0 0 0 0 0 0 0 0 0 0c0 0-0.2 0-0.3 0-0.4 0-0.3 0.3-0.3 0.3 0 0-0.5-0.1-0.5 0.2q0 0 0 0 0 0.1 0 0.1 0 0 0 0 0 0-0.1 0c-0.1 0-0.3 0.1-0.3 0.2 0 0 0.1 0.2 0.1 0.2q0 0-0.1 0c0 0-0.3 0-0.3 0.2q0 0 0.1 0.1 0.1 0 0.1 0.1 0 0-0.1 0c-0.1 0-0.4 0.1-0.4 0.2 0 0 0.1 0.1 0.2 0.2 0.1 0 0.2 0.1 0.2 0.1 0 0.1-0.2 0.3-0.5 0.2v3.7h5.2zm1.3 3.7h5.3v-3.7c-0.3 0.1-0.6-0.1-0.6-0.1 0-0.1 0.1-0.1 0.2-0.2 0.1-0.1 0.2-0.1 0.2-0.2 0-0.1-0.3-0.2-0.4-0.2q0 0 0 0 0 0 0 0c0.1-0.1 0.1-0.2 0.1-0.2 0-0.2-0.2-0.2-0.3-0.2q0 0 0 0 0 0 0-0.1 0-0.1 0-0.1c0-0.1-0.2-0.2-0.3-0.2q0 0 0 0 0 0-0.1 0 0 0 0-0.1 0 0 0 0c0.1-0.2-0.2-0.2-0.4-0.2q0 0 0 0 0 0 0 0 0 0 0-0.1c0-0.1 0-0.2-0.4-0.2q0 0 0 0h-0.1c0 0-0.1 0-0.1 0q0 0-0.1 0c0-0.1 0-0.2-0.3-0.2-0.4 0-0.4 0.1-0.4 0.2q-0.1 0-0.1 0c0 0-0.2 0-0.2 0-0.4 0-0.4 0.2-0.4 0.3q0 0 0 0 0 0 0 0c-0.1 0-0.4 0-0.4 0.2q0 0 0 0 0 0.1 0 0.1-0.1 0-0.1 0c-0.1 0-0.3 0.1-0.3 0.2 0 0 0 0.2 0 0.2q0 0 0 0c-0.1 0-0.3 0-0.3 0.2 0 0.1 0.1 0.2 0.1 0.2q0 0-0.1 0c-0.1 0-0.3 0.1-0.3 0.2 0 0.1 0.1 0.1 0.2 0.2 0.1 0 0.2 0.1 0.2 0.2 0 0.1-0.3 0.2-0.6 0.1zm18.8-41.4c-1.6-4.7-5-6.5-9-8.6l-1.2-0.6c-1.2-0.7-2.2-1.6-2.9-2.7-0.8 1.1-1.8 2-2.9 2.7q-0.6 0.3-1.1 0.6h-0.1q-2.1 1.1-4.1 2.4c2.2 1.4 3.9 3.2 4.9 6.2v24.5h16.4zm451.3 125.9c0-1.9 1-3.8 2.7-4.8v9.7c-1.7-1-2.7-2.9-2.7-4.9z"/>
		</g>
	</g>
	<path id="path865" fill-rule="evenodd" class="s1" d="m-0.1 387.8c0-68.2 0.1-73.1 1.7-71.5 0.9 0.9 1.8 3.3 1.8 5.3 0.1 3.3 0.8 4.1 8.5 9.3 4.6 3.2 10.9 8.4 13.9 11.7 7.1 7.6 9.3 13.7 9.2 25.1l-0.1 8.4 5.5-4.5c3.1-2.5 6-4.5 6.5-4.5 0.6 0 1-1.1 1-2.4 0-1.3 1.1-3.4 2.5-4.7 1.3-1.3 2.2-2.9 1.9-3.6-0.2-0.8 0-1.7 0.6-2 0.7-0.4 1.1 0.3 1.1 1.8 0 1.3 0.9 3.2 2.1 4.3 1.1 1 2 2.6 2 3.6 0 1 2 3.2 4.3 4.9 5.3 3.7 10.2 8.8 12.4 12.9 1.5 2.9 1.6 2.6 1.6-9.5 0.1-6.8-0.3-12.5-0.8-12.5-0.4 0-0.6-2.5-0.4-5.7 0.4-4.2 0.1-6-0.9-6.6-0.8-0.5-0.9-0.9-0.3-0.9 0.7 0 1.1-1.7 1.1-4.2-0.1-3.8 0.4-4.7 4.2-8.1 2.4-2.1 4.3-4.3 4.3-5 0-2.2 2.3-1 7.2 4 4.4 4.3 5.1 5.5 5.1 9.1 0 2.7 0.4 4.2 1.2 4.2 1 0 0.9 0.3-0.1 0.9-1 0.6-1.3 2.4-0.9 6.6 0.2 3.2 0.1 5.7-0.4 5.7-0.5 0-0.8 8-0.6 17.6l0.3 17.6h2.5c2 0 2.6-0.6 2.9-2.5 0.5-4.9 2.4-8 6.4-10.8 2.2-1.5 4-3.3 4-3.9 0-0.7 0.5-1.8 1.2-2.4 0.7-0.7 1.3-3 1.5-5.1 0.2-2.1 0.8-4 1.4-4.2 0.6-0.2 1-15.6 1-44.6l-0.1-44.3-5.3-0.1-5.3-0.1 5.3-1.7c6.3-2 7.1-2.7 5.4-4.7-2.5-3 2.3-10.4 8.2-12.7 3.3-1.2 7.6 0.5 11.3 4.6 3.1 3.3 4.7 7.5 2.9 7.5-0.6 0-1 0.8-0.8 1.7 0.2 1 2.5 2.5 5.4 3.5l5.1 1.8-5.8 0.1-5.9 0.1v10.1c0 7.1 0.4 10.3 1.3 10.6 1 0.4 1 0.6 0 0.6-1 0.1-1.3 5.1-1.3 21.4v21.4l24.6-0.1-0.2-16.7c0-9.1 0.2-17.1 0.6-17.7 1.4-2.4 3.6 1.2 3.6 6 0 3 0.3 4.2 0.9 3.3 0.7-1.2 1-1.2 1.4 0 0.5 1.2 0.7 1.2 1.6 0 0.8-1.2 1-1.2 1.5 0 0.5 1.2 0.7 1.2 1.5 0 0.8-1.2 1.1-1.2 1.5 0 0.8 2.3 1.8 0.4 2-3.6 0.1-4.4 2-6.5 3.8-4.3 0.6 0.8 1.1 1.8 1 2.3-0.1 0.5-0.1 2.2 0 3.9 0.1 2.2 0.4 2.7 1 1.7 0.7-1.2 1-1.2 1.4 0 0.5 1.2 0.7 1.2 1.6 0 0.8-1.2 1-1.2 1.5 0 0.5 1.2 0.7 1.2 1.5 0 0.9-1.2 1.1-1.2 1.6 0 0.4 1.1 0.7 1.1 1.6-0.1q1.1-1.6 1.1-0.3c0 0.7 1.1 1.3 2.5 1.3 2.8 0 3.6-1.6 3.8-8.1 0.1-2.7 0.7-4.6 1.6-4.9 1.9-0.7 3.3 1.4 2.6 3.9-0.4 1.3 0 1.9 1.2 1.9 1.4 0 1.6-1.2 1.4-9.4l-0.3-9.5-5.1-0.5-5.1-0.5 5.3-0.9c4.2-0.6 5.4-1.2 5.4-2.7 0-1-0.5-2-1.2-2.2-1.6-0.6 1.5-6.2 4.9-8.9 4-3.2 8.7-2.8 12.5 1.1 3.6 3.7 5.1 7.2 3.3 7.8-0.6 0.2-1.1 1.2-1.1 2.2 0 1.5 1.1 2.1 5.3 2.7l5.4 0.9-5.1 0.5-5.1 0.5-0.3 9.4c-0.3 8.3-0.1 9.4 1.5 9.8 1.7 0.5 1.7 0.5 0 0.6-1.9 0.2-2.3 2.8-0.7 5.3 0.8 1.2 1.2 1.2 1.9 0.1 0.8-1.2 1-1.2 1.5 0 0.4 1.2 0.7 1.2 1.5 0 0.8-1.2 1-1.2 1.5 0 0.5 1.1 0.8 1.1 1.7-0.1q1-1.6 1.1-0.3c0 0.7 0.4 1.3 0.9 1.3 0.6 0 1.1-2.9 1.3-6.4 0.2-4.9 0.7-6.4 1.9-6.4 1.1 0 1.6 1.5 1.8 6.4 0.2 3.5 0.7 6.4 1.3 6.4 0.5 0 0.9-0.6 0.9-1.3q0.1-1.3 1.1 0.3c0.8 1.2 1.1 1.2 1.9 0.1 0.7-1.2 1-1.2 1.4 0 1 2.5 2.8-1.3 2.6-5.6-0.2-2.4 0.3-4.2 1.2-4.8 1.6-1 4.2 0.6 4 2.5-0.1 0.6-0.1 2.4 0 3.9 0.1 2.4 0.4 2.7 2.4 1.9 2.1-0.8 3.1-2.9 5.2-11.6 0.6-2.6 0.5-2.8-2.6-2.9l-3.4-0.1 3.9-1c3.8-1 3.9-1.1 3.3-4.9-0.6-3.4-0.3-4.1 3-7 4.4-3.9 6.6-4 10.5-0.7 1.7 1.4 3.3 2.2 3.7 1.9 1.3-1.3 0.6-7.3-0.9-7.8-1.3-0.5-1.5-3.7-1.5-19.5 0-16.5 0.2-19 1.7-19.8 0.9-0.5 1.7-1.8 1.8-2.9 0.2-1 0.6-3.2 1-4.7 0.6-2.3 0.3-3.4-1.3-5.2-7.8-8.3-6.7-21.9 3.2-38.6 8.3-14.2 22.5-26.7 38.5-34 5-2.3 7.1-3.9 8.4-6.4 2.2-4.3 2.4-11.3 0.2-12.1-2.2-0.9-1.8-4.2 0.6-5.5 1.1-0.6 2-1.8 2-2.6 0-0.9 1.7-1.6 5.1-2.1 3.9-0.5 5.1-1.1 5.1-2.5 0-1-0.7-2-1.5-2.4-2.1-0.7-2-4.6 0.2-7 1.3-1.5 1.5-2.3 0.6-3.7-0.7-1.1-0.8-2.4-0.2-3.3 1.7-2.6 0.9-7.2-1.6-10.3-1.5-1.7-2.6-4.2-2.5-5.7l0.1-2.8 1.3 3.2c1.8 3.9 3.9 5.7 8.6 7.2l3.7 1.2-3.3 0.1c-3 0.1-3.4 0.4-3.4 2.9 0 1.6 0.5 3.4 1.2 4 0.7 0.8 0.7 1.7-0.3 3.2-1.1 1.8-1 2.4 0.5 4 2.1 2.4 2.2 6.3 0.2 7-0.9 0.4-1.6 1.4-1.6 2.4 0 1.4 1.2 2 5.2 2.5 4 0.5 5.1 1.1 5.1 2.6 0 1 0.9 2.1 2 2.4 3 0.8 2.6 4.4-0.5 5.2-2.3 0.6-2.6 1.2-2.6 5.2 0 3.4 0.6 5.1 2.1 6.4 1.1 0.9 2 2.2 2 2.8 0 0.6 3.2 2.5 7.2 4.4l7.1 3.3v151.1l1 295.9h-182.7l-191.9-2zm89.8-34.5c0-4.2-2.8-6.3-6.1-4.6-1.4 0.8-2 2.2-2 4.6 0 3.5 0.1 3.6 4.1 3.6 3.9 0 4-0.1 4-3.6zm215.4-91.9c0-12.8 0-12.9 2.9-15.8l2.9-2.9-7.8-5.1-6 3.9c-3.3 2.2-6.3 4.8-6.7 5.7-0.3 0.9-0.6 7.4-0.6 14.3v12.7h15.3zm53.1 0.2c0-7 0.3-13.4 0.6-14.2 0.4-1.1-1.4-2.8-5.6-5.7l-6.2-4.1-3.7 2.2c-2.1 1.3-5.1 3.5-6.7 5l-2.9 2.7v26.7h24.5z"/>
</svg>