<?xml version="1.0" encoding="UTF-8" standalone="no"?>
<svg
   xmlns:dc="http://purl.org/dc/elements/1.1/"
   xmlns:cc="http://creativecommons.org/ns#"
   xmlns:rdf="http://www.w3.org/1999/02/22-rdf-syntax-ns#"
   xmlns:svg="http://www.w3.org/2000/svg"
   xmlns="http://www.w3.org/2000/svg"
   width="375"
   height="600"
   viewBox="0 0 99.218747 158.75"
   version="1.1"
   id="svg1034">
  <defs id="defs1028" />
  <g
     id="layer1">
    <path
       d="m 343.26237,74.906451 c -4.37886,-3.60495 -9.23132,-6.70877 -13.18419,-8.95959 0.24077,-0.72945 0.37835,-1.48828 0.4101,-2.25557 0.0741,-1.16549 -0.12964,-2.33204 -0.59795,-3.40228 v -0.0442 c -0.5424,-1.21682 -1.69069,-2.3794 -2.92365,-3.3184 -1.06098,-0.80249 -2.17752,-1.52744 -3.34433,-2.16906 l -0.10319,-2.11164 c 0.25135,-0.2114 0.46567,-0.46355 0.63235,-0.74559 0.15875,-0.33311 0.24342,-0.69718 0.24607,-1.06627 0,-0.42096 -0.11113,-0.8345 -0.3175,-1.20121 -0.17728,-0.31089 -0.43392,-0.57124 -0.74084,-0.75671 l -0.0635,-1.83489 c 0.18521,-0.1397 0.34131,-0.31723 0.45244,-0.52096 0.14817,-0.27728 0.22754,-0.58605 0.23283,-0.90038 -0.003,-0.34502 -0.0926,-0.68368 -0.26458,-0.98345 -0.15875,-0.21802 -0.34925,-0.41196 -0.56621,-0.57627 l -0.0714,-1.90156 -0.63235,-13.78214 c 1.65365,0.018 3.26231,-0.53393 4.55348,-1.56297 0.33073,-0.26443 0.63764,-0.55639 0.91546,-0.87273 0.87841,-0.98864 1.46579,-2.20168 1.69862,-3.50417 -0.0238,-0.36502 -0.0529,-0.74443 -0.11112,-1.14485 -0.24607,1.18488 -0.79111,2.28687 -1.58486,3.2 -0.29104,0.33891 -0.61383,0.6503 -0.96308,0.93025 -1.65629,1.3248 -3.81,1.85566 -5.89227,1.45243 -1.79652,-0.33716 -3.41048,-1.31797 -4.53496,-2.75876 -0.80698,-1.01158 -1.35202,-2.20466 -1.59015,-3.47543 l -0.0159,0.29202 c 0.0503,1.66727 0.62706,3.27578 1.64835,4.59483 1.11125,1.41322 2.69346,2.38133 4.45823,2.72873 0.22225,0.0455 0.45244,0.0807 0.67998,0.10398 l -0.6006,13.79881 -0.10584,1.90156 c -0.21695,0.14949 -0.39952,0.34237 -0.53975,0.56621 0,0 0,0.007 -0.008,0.0101 -0.0979,0.16377 -0.17463,0.34157 -0.21961,0.52757 -0.0397,0.1487 -0.0609,0.30189 -0.0635,0.45588 0.005,0.31195 0.0794,0.61913 0.21432,0.90038 0.14552,0.186 0.30427,0.36036 0.47625,0.52096 l -0.0873,1.83489 c -0.29368,0.1905 -0.53446,0.45032 -0.70379,0.75671 -0.22225,0.36115 -0.33867,0.77708 -0.33867,1.20121 0,0.36988 0.0847,0.73527 0.24871,1.06627 0.1614,0.28733 0.37571,0.54054 0.63236,0.74559 l -0.0714,2.11164 c -1.1721,0.63183 -2.29129,1.35705 -3.34433,2.16906 -1.24884,0.94244 -2.42359,2.10925 -2.93952,3.3184 -0.47096,1.08506 -0.68792,2.2643 -0.635,3.44646 0.0529,0.76438 0.1905,1.52083 0.40745,2.25558 -2.40241,1.37265 -5.1382,3.09694 -7.90045,5.02179 -0.81757,-0.78105 -1.68011,-1.53882 -2.57175,-2.26431 -3.429,-2.8239 -7.23371,-5.25303 -10.33198,-7.01622 0.1905,-0.57203 0.29898,-1.1676 0.32279,-1.7698 0.0582,-0.9144 -0.10054,-1.82985 -0.46831,-2.67017 v -0.032 c -0.42598,-0.94906 -1.32557,-1.86716 -2.2913,-2.60164 -0.83079,-0.63024 -1.70391,-1.19936 -2.61937,-1.70339 l -0.0794,-1.65259 c 0.1958,-0.16563 0.36248,-0.36354 0.49477,-0.58499 0.12436,-0.26141 0.18786,-0.5469 0.1905,-0.83635 0,-0.32861 -0.0847,-0.65167 -0.2487,-0.93795 -0.13759,-0.24447 -0.33602,-0.44926 -0.5768,-0.59505 l -0.0503,-1.43801 c 0.14552,-0.10874 0.26459,-0.24738 0.3519,-0.40693 0.11642,-0.21722 0.17992,-0.45931 0.18256,-0.7059 0,-0.27147 -0.0714,-0.53817 -0.20637,-0.77417 -0.127,-0.16987 -0.27517,-0.32147 -0.44186,-0.45033 l -0.0582,-1.48986 -0.38364,-8.47513 -0.11113,-2.31273 c 0.62442,0.003 1.2409,-0.0931 1.83357,-0.28548 0.63235,-0.20558 1.21973,-0.52414 1.73566,-0.94007 1.0795,-0.85434 1.80711,-2.07433 2.04788,-3.429 0,-0.0487 -0.0106,-0.10398 -0.0159,-0.15266 -0.0159,-0.2413 -0.0317,-0.48578 -0.0714,-0.74451 -0.40482,1.87666 -1.73038,3.42209 -3.52425,4.10816 -2.38919,0.88847 -5.07736,0.12118 -6.63575,-1.89363 -0.63236,-0.79322 -1.06098,-1.72852 -1.24884,-2.72444 l -0.0106,0.23117 c 0.0397,1.30582 0.49212,2.56524 1.29117,3.59817 0.98689,1.25439 2.43945,2.05555 4.02431,2.22012 l -0.11642,2.69214 -0.35189,8.11688 -0.082,1.48987 c -0.17197,0.11959 -0.3175,0.27279 -0.42862,0.45006 -0.14817,0.23177 -0.2249,0.50059 -0.22225,0.77443 0.005,0.24448 0.0609,0.48525 0.16669,0.70565 0.11377,0.14525 0.24077,0.28125 0.37571,0.40719 l -0.0688,1.43775 c -0.23283,0.14869 -0.42333,0.35321 -0.55298,0.59531 -0.17462,0.28204 -0.26458,0.60669 -0.26458,0.93795 -0.003,0.28998 0.0635,0.57652 0.19315,0.83608 0.12435,0.2241 0.29104,0.42254 0.48948,0.5842 l -0.0556,1.65232 c -0.9181,0.49583 -1.79387,1.06548 -2.61937,1.70365 -0.97896,0.73422 -1.89971,1.65233 -2.30188,2.60139 -0.37306,0.85063 -0.54239,1.77535 -0.49741,2.70245 0.0397,0.59981 0.14816,1.19354 0.32014,1.7698 -3.09033,1.76318 -6.86593,4.19206 -10.30287,7.01596 -3.51896,2.85617 -6.59845,6.16214 -8.13594,9.68295 -0.0188,0.0487 -0.031,0.0931 -0.0508,0.13732 -0.2577,-0.15372 -0.53102,-0.32094 -0.77417,-0.46011 0.12885,-0.3937 0.2032,-0.80301 0.22119,-1.21682 0.0378,-0.62865 -0.0728,-1.2573 -0.32306,-1.83515 v -0.0243 c -0.29421,-0.65035 -0.91043,-1.27979 -1.574,-1.78514 -0.56991,-0.43286 -1.17158,-0.82259 -1.7997,-1.16602 l -0.0574,-1.14142 c 0.13573,-0.11218 0.25109,-0.24738 0.34052,-0.39925 0.0868,-0.17912 0.13229,-0.37518 0.13282,-0.57415 0,-0.22569 -0.0593,-0.44741 -0.17039,-0.64373 -0.0958,-0.16827 -0.23337,-0.3093 -0.39926,-0.40931 l -0.032,-0.98875 c 0.0987,-0.0738 0.18097,-0.16774 0.24103,-0.27543 0.082,-0.15002 0.12488,-0.31803 0.12515,-0.48895 0,-0.18547 -0.0484,-0.36777 -0.1405,-0.52864 -0.0868,-0.11615 -0.18917,-0.2196 -0.30427,-0.30771 l -0.0399,-1.02314 -0.34158,-7.41865 c 1.89283,0.0164 3.5224,-1.3335 3.85816,-3.1967 -0.009,-0.2069 -0.0294,-0.41328 -0.0598,-0.61833 -0.18256,0.87948 -0.6686,1.66688 -1.37266,2.22435 -1.71344,1.37504 -4.22777,1.05754 -5.60916,-0.70114 -0.43312,-0.54478 -0.72681,-1.18666 -0.85619,-1.87061 l -0.008,0.15928 c 0.0265,0.89668 0.33629,1.7616 0.88477,2.47121 0.67813,0.86069 1.67561,1.41049 2.76543,1.52427 l -0.32094,7.42632 -0.0585,1.02314 c -0.27569,0.19024 -0.44291,0.50139 -0.44926,0.83635 0.005,0.1696 0.045,0.33602 0.11853,0.48895 0.0791,0.0979 0.1651,0.18997 0.25771,0.27543 l -0.0497,0.98875 c -0.15717,0.10372 -0.28681,0.24421 -0.3773,0.40931 -0.11906,0.19368 -0.18177,0.41646 -0.18124,0.64373 -0.003,0.19923 0.0442,0.39608 0.13362,0.57415 0.0852,0.15425 0.20028,0.28998 0.33866,0.39925 l -0.0365,1.14142 c -0.63209,0.33681 -1.23402,0.72707 -1.7997,1.16602 -0.67363,0.50535 -1.30624,1.13479 -1.583,1.78514 -0.25347,0.58579 -0.37042,1.22185 -0.34158,1.85949 0.0296,0.41222 0.10372,0.82021 0.2212,1.21682 -2.1217,1.20888 -4.71541,2.87576 -7.0792,4.817 -0.44238,0.35746 -0.8583,0.73899 -1.27317,1.1184 l -0.0198,-3.12817 h 1.07288 c 0.77047,-0.0214 1.38377,-0.6522 1.38377,-1.42293 0,-0.77073 -0.6133,-1.40176 -1.38377,-1.42319 h -1.09061 l -0.0775,-11.19505 h 0.31538 c 0.66066,-0.0281 1.18216,-0.57177 1.18216,-1.23323 0,-0.66145 -0.5215,-1.20544 -1.18216,-1.23322 h -0.33205 l -0.17674,-27.11106 h 0.50535 c 0.12938,-10e-4 0.25744,-0.0267 0.3773,-0.0754 0.41671,-0.16827 0.68844,-0.57467 0.68474,-1.0242 0.003,-0.47043 -0.29951,-0.88847 -0.74666,-1.03425 -0.068,-0.023 -0.13811,-0.0389 -0.20928,-0.0476 0.0905,-0.26167 0.1524,-0.53234 0.18494,-0.80724 0,-0.0177 0,-0.0355 0.005,-0.0532 0.0201,-0.13203 0.0323,-0.26485 0.0365,-0.3982 0,-0.20611 -0.0172,-0.41169 -0.0498,-0.61489 0.003,-0.0916 0,-0.18309 -0.007,-0.27437 0,-0.0632 -0.0154,-0.13176 -0.0275,-0.20796 -0.0831,-0.49345 -0.35507,-1.24222 -1.21682,-1.99099 -1.27979,-1.09617 -1.99654,-1.58618 -2.60059,-2.22885 0.0953,-0.0598 0.15399,-0.11959 0.15399,-0.18362 0,-0.13494 -0.23575,-0.25903 -0.61834,-0.35084 -0.50456,-0.62495 -0.85301,-1.08056 -1.10622,-1.36925 l -0.0542,-0.77427 c 0.34396,-0.1261 0.58738,-0.36613 0.58738,-0.65485 0,-0.31191 -0.28205,-0.57848 -0.68236,-0.69022 l -0.0323,-0.46677 c 0.15716,-0.0818 0.26776,-0.2013 0.26776,-0.34732 0,-0.146 -0.13044,-0.29866 -0.31645,-0.37166 l -0.0352,-0.49996 -0.0145,-0.19137 c 0.1106,-0.0597 0.20029,-0.13936 0.20029,-0.24445 0,-0.10507 -0.10186,-0.20463 -0.2368,-0.25993 l -0.096,-1.3926 -0.0974,-0.1405 c 0.0474,-0.01 0.0894,-0.0387 0.0894,-0.0741 0,-0.0354 -0.0275,-0.0575 -0.0651,-0.073 l 0.0487,-0.10398 -0.11059,-1.57954 -0.1106,1.57954 0.0484,0.10398 c -0.0407,0.0155 -0.0696,0.0409 -0.0696,0.073 0,0.0321 0.0431,0.0609 0.0918,0.0741 l -0.0963,0.14269 -0.10054,1.3915 c -0.13388,0.0564 -0.23786,0.14049 -0.23786,0.25884 0,0.11837 0.0873,0.18473 0.20346,0.24445 l -0.0153,0.19137 -0.032,0.50329 c -0.18706,0.0752 -0.31644,0.21016 -0.31644,0.36833 0.0172,0.15467 0.11906,0.28689 0.26432,0.3429 l -0.032,0.47119 c -0.35507,0.0996 -0.6051,0.3219 -0.66384,0.58735 -0.0108,0.0335 -0.0185,0.0679 -0.023,0.10287 0.004,0.0376 0.0114,0.0747 0.023,0.11063 0.0542,0.23672 0.26565,0.43582 0.56542,0.54199 l -0.0553,0.78314 c -0.13626,0.15817 -0.30639,0.36936 -0.51012,0.62601 -0.16907,0.21352 -0.36168,0.45693 -0.58843,0.73792 -0.38259,0.0905 -0.61939,0.22119 -0.61939,0.35269 0,0.0643 0.0577,0.12727 0.15267,0.18362 -0.55298,0.59293 -1.21682,1.06072 -2.31511,1.99099 l -0.28416,0.24024 c -1.25333,1.07606 -1.27662,2.17885 -1.25333,2.46883 -0.0328,0.2032 -0.0487,0.40905 -0.0476,0.61489 0.004,0.42889 0.0789,0.85408 0.22119,1.25888 -0.56303,0.0778 -0.97313,0.57336 -0.94429,1.14115 0.0286,0.5678 0.48683,1.01944 1.05489,1.04008 h 0.50774 l -0.18124,27.11106 h -0.33179 c -0.66093,0.0278 -1.18242,0.57176 -1.18242,1.23322 0,0.66146 0.52149,1.20544 1.18242,1.23322 h 0.31194 l -0.0754,11.19505 h -1.09617 c -0.75327,0 -1.36499,0.64056 -1.36499,1.4269 -0.014,0.76862 0.59664,1.40362 1.36499,1.41923 h 1.07844 l -0.0807,12.026901 c -1.30783,0.26405 -2.55191,0.77946 -3.66342,1.51765 -0.006,-0.0564 -0.0177,-0.1106 -0.0209,-0.16484 -0.46355,-7.23741 -0.63183,-14.544411 -0.31539,-21.818331 -0.11059,-6.73947 -0.52546,-31.19253 -0.8628,-52.57054 -0.0519,-3.32721 -0.10292,-6.58362 -0.15029,-9.684091 h 1.46447 V 9.44401 h -1.47769 c -0.0243,-1.83174 -0.0521,-3.60704 -0.0786,-5.30937 h 2.60694 v -0.7411 h -2.61805 c -0.1561,-10.3731974 -0.25215,-17.868287 -0.22119,-18.591684 0.10504,-2.544075 0.94562,-3.399102 0.94562,-3.399102 l 3.37026,-2.016469 v -3.613681 l -4.00394,-1.492169 h 0.43233 v -1.38054 h -2.54397 v -9.13977 c 0,0 -0.0344,-0.99563 1.15914,-2.23097 1.36711,-1.27555 2.38602,-2.16032 2.63261,-4.03754 0.17356,-2.33812 -1.3462,-3.67321 -2.63261,-5.27605 -1.50865,-1.8804 -3.79068,-3.5396 -5.47317,-6.19443 -0.97816,-1.54411 -1.64994,-3.26231 -1.97882,-5.06042 0.39609,-0.0685 0.68025,-0.24103 0.68025,-0.44238 0,-0.2368 -0.38259,-0.43154 -0.87815,-0.47017 l -0.0685,-1.28746 c 0.30744,-0.0212 0.54187,-0.12938 0.54187,-0.25876 0,-0.12938 -0.24765,-0.24686 -0.56727,-0.26459 l -0.16748,-3.22433 -0.0762,3.23215 c -0.27887,0.0275 -0.48577,0.1315 -0.48577,0.25665 0,0.12488 0.20135,0.22119 0.4736,0.25426 l -0.0299,1.29434 c -0.48128,0.0431 -0.8472,0.23548 -0.8472,0.46779 0,0.20452 0.2831,0.37729 0.68024,0.44238 -0.3302,1.79811 -1.00224,3.51605 -1.98014,5.06042 -1.68222,2.65483 -3.96425,4.31403 -5.47185,6.19442 -1.28746,1.60285 -2.80855,2.93794 -2.6326,5.27606 0.24765,1.88039 1.26206,2.76543 2.6326,4.03754 1.19222,1.23878 1.15703,2.23097 1.15703,2.23097 v 5.94651 h -2.43364 v 1.91241 l 2.43364,1.0332 v 0.24235 h -2.22885 v 0.95568 h -3.78751 v 3.82373 c 0,0 2.73446,2.765319 3.57849,3.294036 0.84402,0.528717 0.73554,4.035134 0.73554,4.035134 l -0.2368,18.379305 h -2.60377 v 0.7411 h 2.59159 l -0.0696,5.30937 h -1.36843 v 0.74332 h 1.36076 l -0.38841,30.326511 v -0.0288 c -0.14711,-0.55298 -0.30189,-1.42452 -1.7698,-2.85036 -0.61436,-0.60483 -1.41975,-0.9771 -2.27859,-1.05304 l -0.24659,-3.98197 -0.24792,3.98197 c -0.55589,0.0497 -1.09326,0.2249 -1.57162,0.51224 -0.25559,0.15213 -0.49239,0.33363 -0.70591,0.5408 -1.4687,1.42584 -1.62375,2.29288 -1.7698,2.85036 -0.095,0.88503 0.62071,0.85831 0.62071,0.85831 v 0.71014 l -3.84281,1.14062 v 0.24553 l 3.6502,0.29422 h 0.0487 v 6.54817 l -1.63486,0.55298 v 0.24448 h 1.63486 v 4.45002 l -8.28358,-1.81081 -0.89482,-0.19579 v -0.9181 c -0.11059,-0.0923 -0.17647,-0.22754 -0.1815,-0.37148 v -0.0212 l -0.59611,-0.13388 c 0,-1.83277 0,-3.26073 -0.0101,-3.49197 0.28866,-0.63606 1.20782,-0.95462 1.20782,-0.95462 v -0.53075 h -0.68236 v -0.37174 h -0.67363 l 0.15928,-6.858 0.70565,-0.10293 c 0.15054,-0.1979 0.38735,-0.31168 0.63605,-0.30533 h 0.34052 v -0.94112 c -0.34713,-0.0741 -0.6858,-0.14393 -0.94773,-0.19023 -0.0378,-0.56965 -0.78767,-0.6096 -1.1393,-0.59743 v -0.61489 c 0,0 0.70115,0.0243 0.60828,-0.82524 -0.14367,-0.54213 -0.29422,-1.37927 -1.72562,-2.75537 -0.60166,-0.58605 -1.38747,-0.94588 -2.22435,-1.01864 l -0.24103,-3.84387 -0.2413,3.84387 c -0.83609,0.073 -1.62111,0.43312 -2.22224,1.01864 -1.43113,1.3761 -1.58274,2.21218 -1.72773,2.75537 -0.0929,0.84958 0.60854,0.82524 0.60854,0.82524 v 0.64928 c -0.91598,0.0939 -1.27423,0.67575 -1.27423,0.67575 l -0.33205,0.072 v -1.06522 c 0.19896,-0.0145 0.38576,-0.10001 0.52652,-0.24103 0.15901,-0.1606 0.24791,-0.3773 0.24791,-0.60299 v -13.17278 c 5.3e-4,-0.22553 -0.0886,-0.44201 -0.24791,-0.60174 -0.15637,-0.15955 -0.37042,-0.24961 -0.59399,-0.24998 0,0 -0.12171,-0.0265 -0.35825,-0.073 l -0.23892,-1.20015 c 0,0 0.49001,-0.70903 -0.27331,-1.18798 -0.17701,-0.57518 -0.33179,-1.06961 -0.41487,-1.36385 0.86625,-0.66365 3.19908,-2.93785 2.43364,-7.930881 -0.93795,-6.08365 -6.56378,-12.25029 -6.56378,-12.25029 0,0 -5.06942,-5.7595844 -13.15165,-8.657619 v -0.553058 c 0.001,-0.224314 -0.087,-0.439896 -0.245,-0.599229 -0.15769,-0.159358 -0.37253,-0.249369 -0.5969,-0.250269 h -0.15478 v -0.70903 h -0.45694 v -2.97434 c 0.28284,-0.209577 0.5342,-0.458391 0.74666,-0.738902 0.38153,0.08628 0.76226,0.173672 1.14379,0.269901 v -2.035234 c -0.44238,-0.110622 -0.8972,-0.20021 -1.3462,-0.290909 -0.0688,-0.04043 -0.1397,-0.07737 -0.21246,-0.110623 v -1.289738 c -1.27635,-0.306387 -2.55507,-0.57187 -3.83036,-0.636032 v -0.908102 c 0.75221,-0.231961 1.2655,-0.927233 1.2655,-1.714502 0,-0.78724 -0.51329,-1.48254 -1.2655,-1.71447 v -0.69908 c 0.40322,-0.20156 0.65802,-0.613759 0.65802,-1.064629 0,-0.45085 -0.2548,-0.86308 -0.65802,-1.06469 v -1.75207 c 0.20902,0.0352 0.42069,0.0526 0.63262,0.0521 1.33138,0.002 2.55374,-0.73581 3.17234,-1.91479 -1.29037,1.15914 -3.22526,1.22846 -4.59554,0.16484 -1.37001,-1.06389 -1.7825,-2.95566 -0.97922,-4.49316 -0.86413,0.78158 -1.29487,1.93384 -1.15544,3.0906 0.13944,1.15676 0.83159,2.17382 1.85659,2.72759 v 2.13492 c -0.40191,0.20267 -0.65538,0.61437 -0.65538,1.06469 0,0.45003 0.25347,0.861819 0.65538,1.064519 v 0.69908 c -0.75221,0.23196 -1.26551,0.92724 -1.26551,1.71448 0,0.787265 0.5133,1.482537 1.26551,1.714497 v 0.904796 c -1.26074,0.05752 -2.52175,0.319669 -3.78275,0.639339 v 1.076272 c -0.49451,0.136049 -0.87286,0.304165 -1.08083,0.505486 -0.16033,0.03651 -0.32067,0.06858 -0.48101,0.110623 v 2.035254 c 0.20902,-0.05419 0.41699,-0.09954 0.62601,-0.149331 0.19341,0.230664 0.41275,0.438124 0.65378,0.618331 v 2.978785 h -0.45482 v 0.709004 h -0.14261 c -0.46646,0.0031 -0.84243,0.383038 -0.84058,0.849524 v 0.470086 c -8.12218,2.8759146 -13.22493,8.73836 -13.22493,8.73836 0,0 -5.56578,6.16221 -6.49288,12.2503 -0.85381,5.604721 2.15583,7.788191 2.64266,8.102331 -0.0897,0.29755 -0.22119,0.71787 -0.36407,1.1924 -0.76305,0.47895 -0.27199,1.18798 -0.27199,1.18798 l -0.23786,1.19681 c -0.21563,0.0498 -0.32305,0.0763 -0.32305,0.0763 -0.22411,-8e-5 -0.43895,0.09 -0.59611,0.25001 -0.15849,0.15997 -0.24686,0.37647 -0.24553,0.60171 v 13.16956 c -10e-4,0.22542 0.0873,0.44212 0.24553,0.60272 0.15743,0.15928 0.37227,0.24871 0.59611,0.24791 l 0.21034,-0.0135 v 2.07962 l -0.13282,0.75883 c -0.25532,-0.34079 -0.53922,-0.65961 -0.84852,-0.9525 -0.53684,-0.5215 -1.23746,-0.84191 -1.98305,-0.90699 l -0.21458,-3.429 -0.21458,3.429 c -0.74215,0.0638 -1.43986,0.381 -1.97564,0.89826 -1.27529,1.22766 -1.41155,1.97432 -1.53961,2.45454 -0.082,0.75882 0.54187,0.74004 0.54187,0.74004 v 0.70458 c -0.0355,0.12039 -0.0786,0.27411 -0.13044,0.45244 -1.04643,0.20902 -2.98662,0.60166 -3.32608,0.71781 -0.0913,0.0177 -0.17754,0.0556 -0.25241,0.1106 -0.15584,0.1106 -0.28416,0.26432 -0.22119,0.36724 l 0.23786,-0.0145 c 0.83185,-0.0463 2.50639,-0.136 3.28956,-0.17568 -0.44238,1.63909 -1.03082,3.95552 -1.26629,4.88235 h -1.22582 v 0.4236 h -0.22992 v -1.54199 h 0.18574 v -0.12594 h -0.37704 v -0.0632 h 0.0108 c 0,0 0.55986,0.0212 0.2712,-0.71226 -0.0664,-0.15769 -0.15266,-0.30638 -0.25665,-0.44238 -0.26987,-0.36724 -0.63817,-0.64823 -0.9779,-0.94139 -0.26723,0.20267 -0.51937,0.42466 -0.75432,0.66384 -0.19791,0.20876 -0.35984,0.449 -0.4789,0.7112 -0.29104,0.73105 0.26988,0.71014 0.26988,0.71014 h 0.01 v 0.0839 h -0.38365 v 0.1262 h 0.1868 v 1.54199 h -0.20559 v 0.99537 h -0.42042 v -0.99537 h -0.70247 v 0.99537 h -0.42148 v -0.99537 h -0.7022 v 0.99537 h -0.42254 v -0.99537 h -0.0511 v -2.32304 h 0.15822 v -0.11059 h -0.32834 v -0.0542 h 0.009 c 0,0 0.47572,0.0177 0.2278,-0.60167 -0.20346,-0.51752 -0.64823,-0.83502 -1.04298,-1.17686 -0.46117,0.36724 -0.78979,0.61066 -1.04405,1.15914 -0.2458,0.61965 0.22886,0.60192 0.22886,0.60192 h 0.009 v 0.0717 h -0.32518 v 0.11059 h 0.15717 v 3.31073 h -0.24792 v -0.99562 h -0.70009 v 0.99562 h -0.42148 v -0.99562 h -0.70114 v 0.99562 h -0.42254 v -0.99562 h -0.70353 v 0.99562 h -0.42042 v -0.99562 h -0.45773 v -1.17144 h 1.48987 v -0.2421 l -1.48987,-0.53313 v -6.50637 h 0.24103 l 3.37371,-0.26882 0.28098,-0.023 v -0.51435 l -0.28098,-0.0444 -3.438,-0.53975 v -0.97552 c 0,0 0.71676,0.0233 0.62071,-0.84957 -0.14605,-0.55298 -0.30083,-1.41023 -1.7698,-2.82284 -0.15134,-0.14288 -0.31353,-0.27332 -0.48577,-0.39053 -0.53155,-0.36829 -1.14988,-0.59266 -1.79388,-0.6514 l -0.24447,-3.93885 -0.24897,3.93885 c -0.85672,0.0751 -1.66159,0.44291 -2.2786,1.04193 -1.4679,1.41261 -1.62163,2.27092 -1.76979,2.82284 -0.0974,0.87286 0.62044,0.84957 0.62044,0.84957 l -0.0706,0.97552 -1.15491,0.17913 -0.635,0.0974 -1.98305,0.30771 v 0.51435 l 1.86029,0.14923 0.79322,0.063 1.00224,0.0796 h 0.0474 v 6.4897 l -0.45561,0.15266 v -0.66384 h 0.15822 v -0.11059 h -0.32517 v -0.0529 h 0.008 c 0,0 0.47572,0.0153 0.22886,-0.60193 -0.20558,-0.51858 -0.6469,-0.83714 -1.04298,-1.17898 -0.46117,0.3683 -0.78873,0.61066 -1.04299,1.16152 -0.24686,0.61939 0.22675,0.60166 0.22675,0.60166 h 0.009 v 0.0707 h -0.32518 v 0.11059 h 0.15928 v 2.47888 h -0.63367 v 0.99563 h -0.42148 v -0.99563 h -0.70247 v 0.99563 h -0.42043 v -0.99563 h -0.70114 v 0.99563 h -0.42148 v -0.99563 h -0.70565 v 0.99563 h -0.41936 v -0.99563 h -0.701149 v 0.99563 h -0.42254 v -0.99563 h -0.70141 v 0.99563 h -0.0675 v -2.03544 h 0.15717 v -0.11059 h -0.32412 v -0.0529 h 0.009 c 0,0 0.47334,0.0177 0.22886,-0.60193 -0.2069,-0.51858 -0.65034,-0.83714 -1.04431,-1.17686 -0.26617,0.19446 -0.51091,0.41698 -0.72998,0.66384 -0.12647,0.14843 -0.23257,0.31326 -0.31512,0.49 -0.24448,0.61939 0.22886,0.60167 0.22886,0.60167 h 0.008 v 0.0706 h -0.3228 v 0.1106 h 0.1569 v 1.04325 h -0.22992 v 0.99536 h -0.42042 v -0.99536 h -0.70247 v 0.99536 h -0.42122 v -0.99536 h -0.70141 v 0.99536 h -0.42148 v -0.99536 h -0.69691 v 0.99536 h -0.032 v -2.51407 h 0.15822 v -0.1106 h -0.32517 v -0.0511 h 0.008 c 0,0 0.47466,0.0156 0.22913,-0.60166 -0.20479,-0.51885 -0.64929,-0.83741 -1.04325,-1.18031 -0.46011,0.36724 -0.78846,0.6141 -1.04405,1.16046 -0.24659,0.62151 0.22887,0.60167 0.22887,0.60167 h 0.008 v 0.0709 h -0.32517 v 0.1106 h 0.15822 v 11.20378 h -0.0542 v 0.36724 h -0.33946 v -0.36724 h -0.56638 v 0.36724 h -0.34079 v -0.36724 h -0.564089 v 0.36724 h -0.33946 v -0.36724 h -0.56541 v 0.36724 h -0.34052 v -0.36724 h -0.56542 v 0.36724 h -0.34051 v -0.36724 h -0.5641 v 0.36724 h -0.33972 v -0.36724 h -0.56621 v 0.36724 h -0.33972 v -0.36724 h -0.5641 v 0.36724 h -0.34078 v -0.36724 h -0.56409 v 0.36724 h -0.33946 v -0.36724 h -0.56409 v 0.36724 h -0.22913 v -15.54981 h 1.63274 v -0.26538 l -1.63274,-0.58076 v -7.12126 h 0.26458 l 3.99971,-0.31856 v -0.26538 l -4.07273,-1.26444 v -0.73554 c 0,0 0.78528,0.0278 0.67918,-0.92683 -0.1606,-0.60617 -0.33205,-1.54861 -1.93463,-3.08954 -0.67469,-0.6567 -1.55628,-1.0594 -2.49449,-1.1393 l -0.26882,-4.31377 -0.27093,4.31377 c -0.65326,0.0561 -1.283233,0.27067 -1.834889,0.62495 -0.228336,0.14419 -0.442119,0.31009 -0.63844,0.49556 l -0.01984,0.0188 c -1.60602,1.54861 -1.775354,2.48338 -1.93675,3.08954 -0.110595,0.95462 0.680244,0.92684 0.680244,0.92684 v 0.77443 l -4.203171,1.2343 v 0.26564 l 3.040592,0.2421 0.961231,0.0765 h 0.0508 v 7.1001 l -1.788583,0.60166 v 0.26564 h 1.786467 v 24.53692 h -0.708025 l -0.03863,-0.88477 c -0.0016,-0.0243 -0.02196,-0.0434 -0.0463,-0.0431 -0.0299,0 -0.05106,0.0153 -0.05106,0.0431 l -0.03969,0.88477 h -0.11721 v 1.58724 c -0.01111,0.0135 -0.02884,0.0233 -0.03784,0.0376 -0.02461,0.0445 -0.03731,0.0944 -0.03651,0.145 -2.65e-4,0.0468 0.01032,0.0931 0.03122,0.13494 0.01323,0.0175 0.02778,0.0341 0.04313,0.0497 v 0.31299 c -0.03757,0.0249 -0.06879,0.0582 -0.09075,0.0974 -0.03334,0.0542 -0.05239,0.11588 -0.0553,0.17938 2.64e-4,0.0553 0.01455,0.10982 0.04207,0.15796 0.02355,0.0415 0.05397,0.0788 0.08943,0.11061 l -0.0077,0.31326 c -0.175154,0.0929 -0.342371,0.20029 -0.500063,0.32068 -0.179916,0.12832 -0.327554,0.29686 -0.431271,0.49212 -0.06826,0.16193 -0.09975,0.33682 -0.09181,0.51224 0.0032,0.11297 0.02355,0.22489 0.0598,0.33178 -0.687388,0.39026 -1.340115,0.83847 -1.951302,1.33959 -0.663575,0.53763 -1.247775,1.16575 -1.539611,1.82959 -0.321204,0.75539 -0.433387,1.58327 -0.324114,2.39686 -0.09366,0.0384 -0.173831,0.10398 -0.230188,0.18812 -0.08599,0.12832 -0.142346,0.27411 -0.164835,0.42677 -0.02408,-0.15213 -0.0799,-0.29739 -0.163777,-0.42677 -0.07012,-0.12382 -0.195792,-0.20611 -0.337344,-0.22119 -0.140229,0.0143 -0.264583,0.0971 -0.331787,0.22119 -0.08811,0.12727 -0.145257,0.27358 -0.166953,0.42677 -0.02778,-0.15054 -0.08228,-0.29501 -0.160337,-0.42677 -0.06588,-0.10186 -0.16801,-0.17489 -0.285485,-0.20479 l -0.0066,-1.04404 -0.07514,-11.15854 h 0.339461 c 0.190235,2.7e-4 0.373062,-0.0751 0.507735,-0.20955 0.134408,-0.13441 0.210079,-0.31697 0.210079,-0.50721 -0.004,-0.32781 -0.233098,-0.6096 -0.552979,-0.68024 v -2.22462 l 0.01005,-0.0863 c -0.0082,-0.0915 -0.01138,-0.18336 -0.01005,-0.27543 v -0.77417 h 0.295275 c 0.135467,0.007 0.264054,-0.0606 0.333904,-0.17674 0.06985,-0.11616 0.06985,-0.26141 0,-0.37783 -0.06985,-0.11615 -0.198437,-0.18415 -0.333904,-0.17648 H 66.8482 c 0.204523,-0.59848 0.457994,-1.73778 -0.05768,-2.91253 -0.237596,-0.54425 -0.720989,-1.06071 -1.268677,-1.51209 -0.505354,-0.40561 -1.042723,-0.76968 -1.607079,-1.0885 0.02646,-0.0905 0.0426,-0.18336 0.04868,-0.27755 0.0071,-0.14287 -0.01852,-0.28548 -0.07541,-0.41698 -0.0852,-0.16298 -0.207962,-0.30321 -0.358246,-0.40931 -0.12991,-0.0976 -0.2667,-0.186 -0.40931,-0.26432 l -0.01111,-0.25215 c 0.03281,-0.0254 0.05953,-0.0574 0.07858,-0.0942 0.01958,-0.041 0.0299,-0.086 0.0299,-0.1315 0.0013,-0.0513 -0.01191,-0.10213 -0.03863,-0.14605 -0.0217,-0.0386 -0.05292,-0.0712 -0.09075,-0.0939 l -0.0066,-0.2212 c 0.02011,-0.022 0.03863,-0.0452 0.0553,-0.0699 0.01905,-0.0336 0.02804,-0.072 0.0254,-0.11059 -0.0021,-0.0386 -0.01217,-0.0762 -0.0299,-0.1106 -0.0172,-0.0299 -0.04048,-0.0561 -0.06853,-0.0762 l -0.01217,-0.23468 -0.0807,-1.7698 c 0,-0.009 -0.0037,-0.0175 -0.01005,-0.0238 -0.0066,-0.006 -0.01535,-0.01 -0.02434,-0.009 -0.0254,0 -0.04762,0.0143 -0.04762,0.0331 l -0.07726,1.7698 -0.01111,0.23468 c -0.02858,0.0191 -0.05133,0.0453 -0.06641,0.0762 -0.02117,0.0331 -0.03254,0.0714 -0.03307,0.1106 0.0013,0.0384 0.01085,0.0762 0.02752,0.11059 0.01376,0.0273 0.0336,0.0511 0.05768,0.0699 l -0.01349,0.2212 c -0.03413,0.0251 -0.06271,0.0571 -0.08387,0.0939 -0.02858,0.0434 -0.04366,0.0942 -0.04313,0.14605 0.0011,0.0458 0.01243,0.0908 0.03307,0.1315 0.01931,0.0362 0.04577,0.0683 0.07752,0.0942 l -0.01561,0.25215 c -0.140229,0.0789 -0.275166,0.16722 -0.403754,0.26432 -0.152664,0.10345 -0.276489,0.24447 -0.359304,0.40931 -0.05609,0.13282 -0.08308,0.27622 -0.07964,0.42042 0.0082,0.0942 0.02672,0.18733 0.0553,0.27755 -0.566473,0.31724 -1.105164,0.6813 -1.610518,1.0885 -0.542132,0.45111 -1.026584,0.96784 -1.271059,1.51209 -0.512233,1.17449 -0.258762,2.31378 -0.05636,2.91227 H 58.71599 c -0.135467,-0.007 -0.263789,0.0606 -0.333904,0.17674 -0.06985,0.11615 -0.06985,0.26141 0,0.37783 0.07012,0.11615 0.198437,0.18415 0.333904,0.17647 h 0.2921 v 3.36048 c -0.316442,0.0741 -0.541073,0.35454 -0.544248,0.67918 -2.64e-4,0.19024 0.07514,0.3728 0.20955,0.50721 0.134409,0.13441 0.316971,0.20981 0.507206,0.20955 h 0.331788 l -0.0598,8.65214 c -0.103452,-0.44265 -0.247914,-0.87498 -0.431271,-1.29091 -0.50456,-1.13823 -1.513152,-2.22541 -2.665941,-3.16891 -1.059657,-0.85328 -2.187575,-1.61793 -3.37238,-2.28653 0.05847,-0.18759 0.09552,-0.38126 0.110596,-0.57732 0.02037,-0.30348 -0.0344,-0.60748 -0.159279,-0.88477 -0.138377,-0.32094 -0.430212,-0.61065 -0.75221,-0.8628 -0.271198,-0.20505 -0.556948,-0.38973 -0.855134,-0.55325 l -0.0254,-0.52863 c 0.06562,-0.0532 0.119857,-0.11907 0.15928,-0.19368 0.04736,-0.0886 0.0717,-0.18785 0.07091,-0.28866 7.94e-4,-0.10504 -0.02831,-0.20823 -0.08414,-0.29739 -0.04471,-0.0802 -0.109537,-0.14711 -0.188118,-0.19473 l -0.01879,-0.46117 c 0.04524,-0.0442 0.08572,-0.0926 0.12065,-0.14499 0.03942,-0.0704 0.0598,-0.14949 0.0598,-0.23019 -0.0024,-0.0865 -0.02672,-0.17092 -0.07091,-0.24554 -0.03598,-0.0624 -0.08599,-0.11562 -0.14605,-0.15584 l -0.01984,-0.49344 -0.170392,-3.70867 c 0,-0.0471 -0.0381,-0.0852 -0.0852,-0.0852 -0.04683,0 -0.08493,0.0381 -0.08493,0.0852 l -0.164835,3.70867 -0.02011,0.49344 c -0.06191,0.0365 -0.111654,0.0908 -0.14261,0.15584 -0.04895,0.0725 -0.07435,0.15823 -0.07303,0.24554 0.0016,0.0807 0.02302,0.15954 0.06191,0.23019 0.02804,0.0545 0.06535,0.10345 0.110595,0.14499 l -0.01217,0.46117 c -0.08176,0.0439 -0.148167,0.11191 -0.190236,0.19473 -0.05636,0.0892 -0.08731,0.19209 -0.08943,0.29739 5.29e-4,0.0998 0.0254,0.19764 0.07303,0.28549 0.03731,0.0762 0.09075,0.1434 0.156898,0.19685 l -0.02646,0.52863 c -0.295805,0.16669 -0.581025,0.35137 -0.854075,0.55325 -0.310621,0.25215 -0.611453,0.54186 -0.754328,0.8628 v 0.007 c -0.118268,0.27913 -0.170391,0.58208 -0.152664,0.88476 0.01005,0.1958 0.04392,0.38974 0.100806,0.57733 -1.184539,0.66807 -2.311664,1.43298 -3.370527,2.28652 -0.478896,0.39238 -0.929481,0.8181 -1.348317,1.27424 0.518848,-2.37279 0.722313,-5.67452 -0.750887,-9.02811 -0.900377,-2.0365 -2.705629,-3.98225 -4.756415,-5.65574 -1.997604,-1.64703 -4.225396,-3.05064 -6.029589,-4.09257 0.106627,-0.33338 0.169598,-0.67919 0.18706,-1.0287 0.03202,-0.53684 -0.06112,-1.07395 -0.271992,-1.56845 l -0.0079,-0.009 c -0.241035,-0.56515 -0.774171,-1.08955 -1.347258,-1.53961 -0.47969,-0.3683 -0.987955,-0.69823 -1.519767,-0.98663 l -0.04762,-0.95673 c 0.116946,-0.0884 0.212725,-0.20188 0.279929,-0.33206 0.08282,-0.15557 0.125677,-0.32914 0.124883,-0.50535 0.0021,-0.19209 -0.04921,-0.38074 -0.148166,-0.54531 -0.08308,-0.14075 -0.196321,-0.26114 -0.331788,-0.35295 l -0.04207,-0.81624 c 0.08943,-0.0714 0.162189,-0.16113 0.213518,-0.26326 0.142875,-0.26723 0.134938,-0.58976 -0.0209,-0.84958 -0.06271,-0.10874 -0.14896,-0.20214 -0.252412,-0.27305 l -0.03757,-0.86836 -0.29845,-6.63681 c -0.0063,-0.0791 -0.07117,-0.14129 -0.150548,-0.14367 -0.03942,-0.003 -0.07805,0.0116 -0.106627,0.0389 -0.02858,0.0272 -0.04445,0.0653 -0.04392,0.10477 l -0.302948,6.63681 -0.03651,0.86836 c -0.106892,0.068 -0.194734,0.16193 -0.255588,0.27305 -0.08387,0.13229 -0.127264,0.28602 -0.124883,0.44239 7.94e-4,0.14287 0.03598,0.28336 0.102923,0.40931 0.05371,0.10001 0.125412,0.18917 0.211137,0.26326 l -0.03307,0.8165 c -0.137848,0.0886 -0.251618,0.20982 -0.331787,0.35269 -0.101071,0.16404 -0.154517,0.35269 -0.155046,0.54531 0.0042,0.32596 0.153458,0.63288 0.407194,0.8374 l -0.04207,0.95674 c -0.534988,0.28786 -1.046163,0.6178 -1.528763,0.98663 -0.567372,0.45032 -1.097227,0.97446 -1.346094,1.53987 -0.211772,0.49742 -0.306017,1.03717 -0.275404,1.57718 0.01836,0.34899 0.0789,0.69427 0.180287,1.0287 -1.801866,1.04087 -4.020741,2.44449 -6.020621,4.09258 -2.044118,1.67931 -3.859265,3.61923 -4.756308,5.65573 -1.59946,3.63696 -1.225603,7.21307 -0.616109,9.60782 v 0.20346 c -0.576448,-0.76517 -1.245182,-1.45627 -1.991016,-2.0574 -1.059736,-0.85249 -2.1873107,-1.61713 -3.371453,-2.28626 0.05786,-0.18786 0.09496,-0.38153 0.110596,-0.57759 0.01974,-0.30348 -0.03495,-0.60722 -0.15928,-0.88477 -0.139382,-0.32067 -0.431376,-0.61065 -0.75438,-0.8628 -0.270271,-0.20505 -0.555307,-0.39 -0.852805,-0.55298 l -0.02765,-0.5289 c 0.146844,-0.11668 0.232014,-0.29448 0.231167,-0.48207 -5.3e-5,-0.10504 -0.02873,-0.20797 -0.08295,-0.29766 -0.04522,-0.0802 -0.110358,-0.14711 -0.189151,-0.19473 l -0.01881,-0.46117 c 0.04553,-0.0442 0.08665,-0.0926 0.122766,-0.14499 0.03765,-0.0707 0.05739,-0.14976 0.05752,-0.22993 -0.0021,-0.0865 -0.02659,-0.17118 -0.07078,-0.24553 -0.03583,-0.0627 -0.08583,-0.11615 -0.146024,-0.1561 l -0.0199,-0.49319 -0.17145,-3.70893 c 0.0037,-0.032 -0.01135,-0.0635 -0.03873,-0.0807 -0.02736,-0.0172 -0.0622,-0.0172 -0.08956,0 -0.02738,0.0172 -0.04244,0.0487 -0.03874,0.0807 l -0.167032,3.70893 -0.0199,0.49319 c -0.06175,0.0368 -0.111072,0.091 -0.141579,0.1561 -0.04964,0.072 -0.07554,0.15796 -0.07411,0.24553 0.0016,0.0804 0.02291,0.15955 0.06194,0.22993 0.02826,0.0545 0.06567,0.10345 0.110623,0.14499 l -0.0089,0.46117 c -0.08271,0.0431 -0.149675,0.11139 -0.191347,0.19473 -0.05681,0.0889 -0.08784,0.19209 -0.08961,0.29766 1.59e-4,0.0995 0.02487,0.19764 0.07191,0.28522 0.03781,0.0767 0.09221,0.14393 0.159279,0.19685 l -0.02765,0.5289 c -0.295883,0.16642 -0.581078,0.3511 -0.853943,0.55298 -0.313028,0.25215 -0.612775,0.54213 -0.755464,0.8628 v 0.007 c -0.117158,0.27966 -0.16936,0.58208 -0.152665,0.88503 0.0104,0.19553 0.04342,0.3892 0.09845,0.57732 -1.183005,0.6686 -2.309143,1.43325 -3.367027,2.28627 -1.14262304,0.93477 -2.1370234,2.00765 -2.6480534,3.13372 l -0.05088,-7.32578 h 0.340686 c 0.189997,0 0.37219397,-0.0757 0.50643797,-0.21008 0.1342454,-0.13441 0.2095134,-0.31671 0.2092204,-0.50668 -0.0027,-0.32464 -0.2270714,-0.60537 -0.54310537,-0.67918 v -3.3827 h 0.29201797 c 0.1354034,0.008 0.2638374,-0.0603 0.3337824,-0.17674 0.06994,-0.11616 0.06994,-0.26141 0,-0.37756 -0.06995,-0.11616 -0.198379,-0.18415 -0.3337824,-0.17675 H -1.1760624 c 0.20131597,-0.59848 0.45572437,-1.73778 -0.05862,-2.91253 -0.241136,-0.54398 -0.727829,-1.06071 -1.269828,-1.51183 -0.505557,-0.40772 -1.0446988,-0.77179 -1.6116218,-1.08849 0.03035,-0.09 0.04966,-0.1831 0.05752,-0.27782 0.0038,-0.14393 -0.02294,-0.28733 -0.07853,-0.42015 -0.08427,-0.16405 -0.20775,-0.30454 -0.359489,-0.40932 -0.128852,-0.0976 -0.264504,-0.186 -0.40595,-0.26431 l -0.01548,-0.25215 c 0.03172,-0.0259 0.05805,-0.0579 0.07742,-0.0942 0.02209,-0.0402 0.03387,-0.0855 0.03429,-0.1315 6.61e-4,-0.0516 -0.01355,-0.1024 -0.04093,-0.14605 -0.02379,-0.036 -0.05331,-0.0677 -0.08737,-0.0939 l -0.01106,-0.22145 c 0.02312,-0.0191 0.04196,-0.0426 0.0553,-0.0696 0.01781,-0.0341 0.02728,-0.072 0.02765,-0.1106 -8e-5,-0.0389 -0.01037,-0.077 -0.02987,-0.11059 -0.01714,-0.0302 -0.04053,-0.0561 -0.06858,-0.0762 l -0.01106,-0.23469 -0.07964,-1.7698 c 0,-0.0188 -0.0199,-0.0331 -0.04535,-0.0331 -0.0091,-2.6e-4 -0.01794,0.003 -0.02458,0.009 -0.0066,0.006 -0.01053,0.0148 -0.01082,0.0238 l -0.08184,1.7698 -0.01217,0.23469 c -0.02659,0.0214 -0.0494,0.0471 -0.06747,0.0762 -0.01733,0.0344 -0.02712,0.0722 -0.02876,0.11059 -0.0024,0.0384 0.006,0.0767 0.02431,0.1106 0.01693,0.0243 0.03543,0.0476 0.05532,0.0696 l -0.0055,0.22145 c -0.03813,0.0222 -0.06919,0.0548 -0.08962,0.0939 -0.02752,0.0436 -0.04138,0.0944 -0.03982,0.14605 1.06e-4,0.0455 0.01029,0.0905 0.02987,0.1315 0.01947,0.0368 0.04665,0.0688 0.07964,0.0942 l -0.01217,0.25215 c -0.142479,0.0788 -0.279559,0.16721 -0.410369,0.26431 -0.149728,0.10663 -0.272442,0.24686 -0.358378,0.40932 -0.05699,0.1307 -0.08202,0.27331 -0.073,0.41592 0.0029,0.0942 0.01889,0.18759 0.04755,0.27755 -0.563113,0.32014 -1.099159,0.68553 -1.602767,1.09299 -0.546417,0.45112 -1.029784,0.96785 -1.269814,1.51183 -0.51435,1.17475 -0.26215,2.31405 -0.05863,2.91253 h -0.4723081 c -0.135414,-0.007 -0.263842,0.0606 -0.333772,0.17675 -0.06996,0.11615 -0.06996,0.2614 0,0.37756 0.06993,0.11641 0.198358,0.18441 0.333772,0.17674 h 0.3030801 v 0.77443 c 0,0.0873 0,0.17595 -0.01217,0.27543 l 0.01217,0.0863 v 2.22118 c -0.3196961,0.0712 -0.5485871,0.35269 -0.5530581,0.68024 0,0.1905 0.0758,0.37306 0.210714,0.50747 0.1348851,0.13441 0.3177651,0.20982 0.5082651,0.20929 h 0.336259 l -0.07522,11.15853 -0.0066,1.03849 c -0.01548,0 -0.02876,-0.0143 -0.04535,-0.0143 -0.143113,0.0137 -0.270563,0.0963 -0.341789,0.22119 -0.07948,0.13123 -0.134223,0.27596 -0.161502,0.42703 -0.02133,-0.15345 -0.07855,-0.29977 -0.167005,-0.42703 -0.06712,-0.12409 -0.1913991,-0.20691 -0.3318401,-0.22119 -0.139462,0.0169 -0.2626247,0.099 -0.3318397,0.22119 -0.08292,0.12991 -0.138616,0.27516 -0.163698,0.42703 -0.02424,-0.15213 -0.08001,-0.29765 -0.163724,-0.42703 -0.05657,-0.0839 -0.136578,-0.14923 -0.230055,-0.18812 0.108611,-0.8136 -0.0037,-1.64148 -0.3252,-2.39686 -0.29202,-0.66358 -0.876062,-1.29196 -1.539716,-1.8296 -0.6114,-0.49715 -1.26418,-0.94112 -1.951223,-1.32715 0.03638,-0.10715 0.05615,-0.21907 0.05863,-0.33205 0.0092,-0.17515 -0.02146,-0.35031 -0.08959,-0.51197 -0.105775,-0.19695 -0.256218,-0.36523 -0.439203,-0.49223 -0.156713,-0.12091 -0.323612,-0.22833 -0.498872,-0.32067 v -0.313 c 0.03506,-0.032 0.0649,-0.0693 0.0885,-0.1106 0.02696,-0.0484 0.04106,-0.10292 0.04093,-0.15822 -0.0021,-0.0635 -0.02077,-0.12515 -0.05421,-0.17912 -0.02291,-0.0458 -0.05815,-0.0841 -0.101759,-0.1106 l -0.02765,-0.26988 c 0.02686,-0.0225 0.05001,-0.0489 0.06858,-0.0786 0.01884,-0.0426 0.029,-0.0884 0.02987,-0.13493 -2.91e-4,-0.0505 -0.01283,-0.10028 -0.03651,-0.145 -0.02098,-0.0352 -0.05022,-0.0648 -0.08517,-0.0863 l -0.01217,-0.28205 -0.09734,-2.15132 c -2.12e-4,-0.0127 -0.0058,-0.0246 -0.01527,-0.0328 -0.0095,-0.008 -0.02204,-0.0119 -0.0345,-0.0103 -0.01204,-7.9e-4 -0.02381,0.003 -0.03273,0.0116 -0.0089,0.008 -0.01426,0.0193 -0.01484,0.0315 l -0.09623,2.15132 -0.0055,0.28205 c -0.03567,0.0217 -0.06591,0.0513 -0.0885,0.0863 -0.02178,0.0453 -0.03276,0.0947 -0.03207,0.145 -0.0036,0.0471 0.0072,0.0942 0.03098,0.13493 0.01606,0.0307 0.03874,0.0574 0.06636,0.0786 l -0.01217,0.27094 c -0.04516,0.0275 -0.08308,0.0653 -0.110596,0.11059 -0.03098,0.0545 -0.04699,0.11642 -0.04646,0.17913 -0.0013,0.0558 0.01323,0.11059 0.04202,0.15822 0.01839,0.0439 0.04815,0.082 0.08628,0.11059 v 0.31301 c -0.175842,0.0913 -0.34282,0.1987 -0.498845,0.32094 -0.183992,0.127 -0.335518,0.2958 -0.442463,0.49212 v 0.009 c -0.06943,0.15795 -0.0994,0.33073 -0.08739,0.50323 0.0067,0.11219 0.02561,0.22358 0.05644,0.33179 -0.685138,0.39132 -1.337336,0.83794 -1.950111,1.33509 -0.663655,0.53763 -1.249919,1.16575 -1.536383,1.82959 -0.259741,0.59452 -0.383699,1.23958 -0.362823,1.88807 l -0.724509,-0.0222 v -0.3638 l 0.01881,-2.47121 0.01548,-2.18995 0.747739,-0.54531 v -2.69028 h -1.106117 l -0.01,-2.68103 0.54311,-0.38047 v -1.60737 h -0.63603 l -0.01548,-2.30293 -0.7942,-0.85937 -0.09845,-0.6051 -0.194992,97.172579 370.535903,-0.79375 0.077,-79.684149 c -1.37583,-1.39515 -2.82575,-2.71251 -4.3471,-3.94547 z"
       fill="#2d1e3c"
       id="path33"
       style="display:inline;opacity:1;mix-blend-mode:normal;fill:#000000;fill-opacity:1;fill-rule:evenodd;stroke-width:0.264583" />
  </g>
</svg>
