<svg width="375" height="375" viewBox="0 0 375 375" fill="none" xmlns="http://www.w3.org/2000/svg">
    <path opacity="0.2" d="M187.464 374.928C290.998 374.928 374.928 290.998 374.928 187.464C374.928 83.9305 290.998 0 187.464 0C83.9305 0 0 83.9305 0 187.464C0 290.998 83.9305 374.928 187.464 374.928Z" fill="#FFF2A8"/>
    <path opacity="0.2" d="M187.464 329.291C265.793 329.291 329.291 265.793 329.291 187.464C329.291 109.136 265.793 45.6377 187.464 45.6377C109.136 45.6377 45.6377 109.136 45.6377 187.464C45.6377 265.793 109.136 329.291 187.464 329.291Z" fill="#FFF2A8"/>
    <path opacity="0.2" d="M187.464 283.172C240.322 283.172 283.172 240.322 283.172 187.464C283.172 134.606 240.322 91.7568 187.464 91.7568C134.606 91.7568 91.7568 134.606 91.7568 187.464C91.7568 240.322 134.606 283.172 187.464 283.172Z" fill="#FFF2A8"/>
    <path d="M187.464 242.98C218.125 242.98 242.98 218.125 242.98 187.464C242.98 156.804 218.125 131.949 187.464 131.949C156.804 131.949 131.949 156.804 131.949 187.464C131.949 218.125 156.804 242.98 187.464 242.98Z" fill="#FFFFD3"/>
</svg>